<svg id="Layer_1" data-name="Layer 1" xmlns="http://www.w3.org/2000/svg" xmlns:xlink="http://www.w3.org/1999/xlink" viewBox="0 0 1200 1200"><defs><style>.cls-1{opacity:0.2;}.cls-2{fill:url(#linear-gradient);}.cls-3{fill:url(#linear-gradient-2);}.cls-4{fill:url(#linear-gradient-3);}</style><linearGradient id="linear-gradient" x1="449.52" y1="603.08" x2="572.63" y2="603.08" gradientUnits="userSpaceOnUse"><stop offset="0.02" stop-color="#2e7ab9"/><stop offset="0.2" stop-color="#3080c1"/><stop offset="1" stop-color="#246399"/></linearGradient><linearGradient id="linear-gradient-2" x1="634.6" y1="601.71" x2="750.22" y2="601.71" xlink:href="#linear-gradient"/><linearGradient id="linear-gradient-3" x1="600" y1="341.94" x2="600" y2="850.77" gradientUnits="userSpaceOnUse"><stop offset="0.02" stop-color="#2e7ab9"/><stop offset="0.16" stop-color="#0f3e82"/><stop offset="0.48" stop-color="#1e5c9f"/><stop offset="0.81" stop-color="#3080c1"/><stop offset="1" stop-color="#246399"/></linearGradient></defs><g class="cls-1"><path class="cls-2" d="M557.63,569.85a5.15,5.15,0,0,0-4.64,2.3l-15-12.06a5.13,5.13,0,0,0,2-3.75,5.08,5.08,0,0,0-.52-2.57l11.87-6.91a5.17,5.17,0,1,0,6.95-7.35l14.35-35.08-17.31,5.77L546,497.1l5.82-21.74-19.09,8.84-20.43-2.51s0,0,0-.06a5.19,5.19,0,1,0-10.3.79l-9.72,4.82a5.16,5.16,0,0,0-8.59.31l-27.6-16.85,15.63,34.11a5.11,5.11,0,0,0-1.41,7.83l-15,15,12.48,4.49,5.82,14.09a5.21,5.21,0,0,0-2.66,3.37l-17.92-2.79,12,25.35a5.17,5.17,0,1,0,6.76,7.3l11.53,5.76a5.1,5.1,0,0,0-.38,1.92,5.32,5.32,0,0,0,.3,1.69l-33.7,14.89,33.53,7a5.09,5.09,0,0,0,1.45,2.61l-9,11a5.19,5.19,0,1,0,1.33,7.22l15.25,8.71a5.12,5.12,0,0,0-.49,2.18,5.19,5.19,0,0,0,5.19,5.19,6.17,6.17,0,0,0,.74-.07l3.65,15.72a5.17,5.17,0,0,0-4,3.23l-19.49-5.73a5.19,5.19,0,1,0-5.22,4.13l1.13,19.11a5.17,5.17,0,1,0,5.69,6.55l15.85,3.17a5.2,5.2,0,0,0,1.65,4.41L484,710.89a5.17,5.17,0,1,0-9,5L453.55,730.5l.48.72,21.42-14.59a5.12,5.12,0,0,0,8.59-.87l55.81,19.7.29-.81L484.37,715a4.59,4.59,0,0,0,.18-.56,5.9,5.9,0,0,0,.06-.59h29.48a5.18,5.18,0,1,0,6.17-5.52l-.3,0,1.15-20.84a5.18,5.18,0,1,0-5.33-5.17,5,5,0,0,0,.52,2.22l-11.85,6.91a5.11,5.11,0,0,0-3.22-2.11h-.05l1.39-15.72a5.17,5.17,0,0,0,3.65-8.06l11-9A5.12,5.12,0,0,0,521,658a5.19,5.19,0,0,0,1.93-10l13.5-44,2.51,2.85,14.94-28a5.08,5.08,0,0,0,3.09,1.32,5.19,5.19,0,0,0,.69-10.35ZM507.13,601a5.19,5.19,0,0,0-5.19,5.18,1.9,1.9,0,0,0,0,.25l-8.9,1.78a5.12,5.12,0,0,0-1.65-2.53l5.65-8.06,16.56-12.24a3.39,3.39,0,0,0,.31.34L507.21,601Zm-27.68-91.8a5.14,5.14,0,0,0-1.8-3.77l7.78-10.7a5.09,5.09,0,0,0,5.65-.18l10.68,12.82a5.19,5.19,0,0,0-1.48,3Zm39.79-10.24a5.15,5.15,0,0,0,3.91-1.81l13.32,17a5.09,5.09,0,0,0-1.11,1.45l-23.7-12.69,3.9-5.53A5.16,5.16,0,0,0,519.24,498.93Zm10.41,57.36-15.74-2.6a4.83,4.83,0,0,0,.14-1.15,5.14,5.14,0,0,0-.94-3l8.81-10.15L530.6,553a5.06,5.06,0,0,0-1,2.68A4.42,4.42,0,0,0,529.65,556.29Zm-41.11,48.18v-12.2a5.13,5.13,0,0,0,2.58-.93l5.09,6-5.5,7.84A5,5,0,0,0,488.54,604.47Zm17.29-47.73-6.44,5.19a5.17,5.17,0,0,0-6.16,8.23l-3.92,11.93a5.65,5.65,0,0,0-.92-.12l-.91-30.41,16.24.48c0,.16-.05.33-.05.5A5.2,5.2,0,0,0,505.83,556.74Zm-14,34a5.15,5.15,0,0,0,1.51-3.65,4.29,4.29,0,0,0-.08-.72l19.11-4.33a5.17,5.17,0,0,0,.78,2.58l-16.29,12Zm20.61-9.6L493,585.58a5.17,5.17,0,0,0-2.9-3.23L494,570.73a5.14,5.14,0,0,0,7.16-1.55l13.2,8.71A5.13,5.13,0,0,0,512.4,581.18Zm-12.29-18.73,6.52-5.24a5.14,5.14,0,0,0,7-2.69l15.6,2.58-27.58,7.7A5.08,5.08,0,0,0,500.11,562.45Zm12.44-13.56a5.17,5.17,0,0,0-8.67,2.29l-16.43-.49L487,535.18a5.15,5.15,0,0,0,4.53-4.69h21a5.58,5.58,0,0,0-.18,1.3,5.14,5.14,0,0,0,7.63,4.55l1.48,2.32Zm-2.2-36.39,24.47,5.07a.06.06,0,0,1,0,0,5.2,5.2,0,0,0,.46,2.43l-14.38,7.84a5.06,5.06,0,0,0-5.79-.66l-7.38-11.56A5.18,5.18,0,0,0,510.35,512.5Zm10.3,23.39a5.1,5.1,0,0,0,.83-7.4l14.19-7.7a5.1,5.1,0,0,0,.62.77L522,538Zm14.4-19.47c0,.1-.06.19-.08.29l-24.44-5.06a5.92,5.92,0,0,0,.06-.62,5.12,5.12,0,0,0-1.87-3.95l2.44-3.45Zm-27-9.84a5.08,5.08,0,0,0-2.62-.73,5.14,5.14,0,0,0-3,.94L491.75,494a5.15,5.15,0,0,0,.43-.5l18.21,9.75ZM502,514.89a5.16,5.16,0,0,0,3.44,1.33,5.29,5.29,0,0,0,1.5-.24l7.49,11.69a5,5,0,0,0-1.58,2H491.52a5.2,5.2,0,0,0-1.59-3.34Zm-15.83,20.33.46,15.44-5.43-.15a5.14,5.14,0,0,0-2.47-4.11l5.77-11.53A5.13,5.13,0,0,0,486.13,535.22Zm-5,16.15,5.49.16.9,30.47a4.63,4.63,0,0,0-.52.07l-8.3-26.85A5.13,5.13,0,0,0,481.13,551.37Zm36.38,25.38a5.14,5.14,0,0,0-2.41.62l-13.58-9a5.17,5.17,0,0,0,.42-2,5.82,5.82,0,0,0-.07-.73L530,557.8a5.16,5.16,0,0,0,2.75,2.92l-13.3,16.4A5.17,5.17,0,0,0,517.51,576.75ZM539,553a5.13,5.13,0,0,0-7.84-.73l-8.69-13.54,14.43-16.63a5.23,5.23,0,0,0,2.72,1,5.15,5.15,0,0,0,2.62-.54l10.27,17.11a5.2,5.2,0,0,0-2.16,3.85,5.12,5.12,0,0,0,.51,2.56Zm30.58-45.77-12.92,31.59-.27-.05V511.74l0-.07Zm-14.93,31.53a5.25,5.25,0,0,0-1.4.47L543,522.14a5.08,5.08,0,0,0,1.58-6.54l10.07-3.35Zm-1.07-28-10.13,3.38a4.9,4.9,0,0,0-1.75-1.06l3.7-13.84Zm-4.41-32.29-4.59,17.14-10.24-10.26Zm-5.1,19L540,512.79a5.08,5.08,0,0,0-2.86.84l-13.48-17.24a5.21,5.21,0,0,0,.75-2.65,5.09,5.09,0,0,0-1.17-3.23l9.44-4.38Zm-41.52-13.45a5.16,5.16,0,0,0,9.41-.68l17.78,2.18-7.94,3.69a5.09,5.09,0,0,0-2.59-.72A5.19,5.19,0,0,0,515,496.7l-4.09,5.81-18.24-9.77a5.1,5.1,0,0,0,.65-2.46,4.84,4.84,0,0,0-.25-1.48Zm-44.51-11.17,25.24,15.41a5.08,5.08,0,0,0-.39,2,5.15,5.15,0,0,0,1.81,3.91L477,504.88a5.17,5.17,0,0,0-2.68-.76,5.08,5.08,0,0,0-1.75.32Zm10.46,58.71-.07-.17-11.56-4.16,14-14a5.15,5.15,0,0,0,8.45-3.22l20.84,1.21a5.19,5.19,0,0,0,1.14,3l-12.11,11.48a5.18,5.18,0,1,0-5.57,8.74L477.93,546a5.19,5.19,0,0,0-1.93-.38,5,5,0,0,0-1.56.27Zm-14,16.29,16.32,2.54c0,.12,0,.24,0,.36a5.2,5.2,0,0,0,3.15,4.77l-5.38,16.14a5.51,5.51,0,0,0-1.22-.15,5.23,5.23,0,0,0-1.54.25Zm17.64,30.77a5.39,5.39,0,0,0,.37-1.93A5.17,5.17,0,0,0,469.4,572l5.38-16.15A4.92,4.92,0,0,0,476,556a5.1,5.1,0,0,0,1.92-.38l8.25,26.7a5.19,5.19,0,0,0-2.48,2.12Zm-19.84,24.73,31.24-13.81a5.15,5.15,0,0,0,4.11,2.67v12.2a5.17,5.17,0,0,0-4.76,5.14c0,.07,0,.14,0,.21Zm24.91,27.41a5.16,5.16,0,0,0-1.09-5.91l9-11a5.22,5.22,0,0,0,2.94.91,5.13,5.13,0,0,0,3-1l15.4,9.89a5.12,5.12,0,0,0,.3,6.78l-7,7.85a5.16,5.16,0,0,0-7.38,1.2Zm39.17,19.6-14.75-6.32a5.11,5.11,0,0,0,.28-1.63,5.19,5.19,0,0,0-1.43-3.57l7-7.85a5.15,5.15,0,0,0,3.1,1.05,5.36,5.36,0,0,0,1.51-.25l6.55,16.38A5.15,5.15,0,0,0,516.41,650.42Zm.32,34.8a5.18,5.18,0,0,0,3.52,2.15l-1.16,20.83a5.19,5.19,0,0,0-4.94,4.16,5.9,5.9,0,0,0-.06.59H484.61a5.22,5.22,0,0,0-.25-1.2l13.06-13a5.16,5.16,0,0,0,7.46-6.58Zm-21.48,7.7-15.85-3.17a5.16,5.16,0,0,0-4.11-5.67,5.37,5.37,0,0,0-.89-.09l-1.12-19.11a5.18,5.18,0,0,0,4.09-3.24l19.49,5.73a5.2,5.2,0,0,0,4.84,6.21l-1.38,15.6A5.17,5.17,0,0,0,495.25,692.92Zm10.42-28.11a5.17,5.17,0,0,0-3.65-1.58l-3.68-15.84a5.22,5.22,0,0,0,3-2.49l14.75,6.32a4.9,4.9,0,0,0-.29,1.63,5.22,5.22,0,0,0,.91,2.94Zm16.4-17a5.7,5.7,0,0,0-1.1-.12,5,5,0,0,0-1.51.25l-6.55-16.38a5.19,5.19,0,0,0,2.87-4.62,5,5,0,0,0-.52-2.22l19.67-18.81Zm-7.25-23.86a5.14,5.14,0,0,0-7.68-.86l-15.31-9.84a5.18,5.18,0,0,0,1.47-3.61,5.42,5.42,0,0,0-.06-.58l8.83-1.77a5.18,5.18,0,1,0,6-6.2l6.52-14.81a5.08,5.08,0,0,0,2.88.88,5.14,5.14,0,0,0,3.08-1L536,603.64Zm23.91-18.52-2-2.31,0-.12-.07.07-15.42-17.51a5.15,5.15,0,0,0-1-8L533.57,561a5.17,5.17,0,0,0,.89.15,5.24,5.24,0,0,0,2.76-.6l15.35,12.33a5,5,0,0,0-.46,1.77,5.16,5.16,0,0,0,1.11,3.54Z"/><path class="cls-3" d="M717.87,609.82a5.16,5.16,0,0,0-4.5-3.62V594a5.16,5.16,0,0,0,4.75-5.14,5.29,5.29,0,0,0-.37-1.92l11.52-5.77a5.18,5.18,0,1,0,8-6.4l11-13.34-.53-.23c-8.94-3.79-14.37-6-17.69-7.35a4.88,4.88,0,0,0-.32-3.52c3.46-2.35,9.39-6.71,19.65-14.74l.85-.66-30.37-3.15a5.29,5.29,0,0,0-.05-.56l27.92-7-16.4-10.7a5.11,5.11,0,0,0-1.78-6.82l18.87-36.09L716.9,488.7a5.13,5.13,0,0,0-6-1.46l-6.45-19.62-11.71,24.2,0,.12,1.9,15.74a6.6,6.6,0,0,0-.63.2l-10.91-24.77L683,483l-32.35-14,1.14,1.33L655,492.11a5.16,5.16,0,0,0-4.26,4.66H634.6l15.62,16.05a5.25,5.25,0,0,0-1.27,3.69,5.19,5.19,0,1,0,6.16-5.37l.93-8.77h.12a5.19,5.19,0,0,0,4.78-4.19l10.54,1.23a5.14,5.14,0,0,0,4.7,4.65v26a5.17,5.17,0,0,0-4.55,6.57l-18,6.74a5.17,5.17,0,1,0,.5,1.93,5.73,5.73,0,0,0-.2-1.11l18-6.75a5.19,5.19,0,1,0,5.12-7.37v-26a5.16,5.16,0,0,0,3.48-1.76l10.69,7.77a5.14,5.14,0,0,0-.77,2.68,5.19,5.19,0,1,0,8.83-3.69L710,496.25a5.1,5.1,0,0,0,5.66.18l7.77,10.7a5.14,5.14,0,0,0,.41,8.15l-6.91,11.84a5.13,5.13,0,0,0-7.37,4.24H697.34A5.18,5.18,0,1,0,692,537l-4,14a5.58,5.58,0,0,0-1-.1,5.19,5.19,0,1,0,4,8.5l8.86,6.2a5.07,5.07,0,0,0-.72,2.6,5.18,5.18,0,0,0,3.5,4.88l-3.32,13-10.6-1.87c0-.16,0-.31,0-.47a5.19,5.19,0,1,0-5.19,5.19,5.12,5.12,0,0,0,1.63-.29l6.33,14.75a5.14,5.14,0,0,0-2.68,3.75l-25.5-1.42,23,19.93a5.16,5.16,0,0,0-1,3.06,5.33,5.33,0,0,0,.18,1.27l-26,9,16.29,12.86a5.16,5.16,0,0,0,3.89,8v19.11a5.18,5.18,0,1,0,4.68,8.12l11.84,6.91a5.13,5.13,0,0,0-.42,3.25,5.19,5.19,0,0,0,6.11,4.06,5.1,5.1,0,0,0,2.49-1.29l13.16,12.06a5.09,5.09,0,0,0-1.06,2.74H687a5.9,5.9,0,0,0-.06-.59,5.19,5.19,0,1,0-8.93,4.47L662.25,735.2l.62.59,15.72-16.64a5.14,5.14,0,0,0,8.36-3.61h29.49a3.93,3.93,0,0,0,.06.59,5.16,5.16,0,0,0,9.2,2.1l22.46,14.22.46-.73L726.16,717.5a5.13,5.13,0,0,0-2.75-7.23L727.46,696c.11,0,.22,0,.33,0a5.17,5.17,0,0,0-.28-10.2l1.12-19.11a5.17,5.17,0,0,0,.17-10.33l-.53-20.81.23,0a5.18,5.18,0,0,0,3.68-8.84l17.22-23.82Zm29.5-5.59-15.86,21.93a5.1,5.1,0,0,0-6.16.11l-8.87-11.16a5.13,5.13,0,0,0,1.64-3.77,5.23,5.23,0,0,0-.07-.68Zm-41.56,90.48a5.18,5.18,0,0,0-4.89-3.81l-1-15.65a5.14,5.14,0,0,0,3.09-1.67l19.42,14.57a5.13,5.13,0,0,0-.71,3.58ZM682.39,650l6.55-16.38a5.36,5.36,0,0,0,1.51.24,4.34,4.34,0,0,0,.63-.06l6.55,31.43a5.17,5.17,0,0,0-2.25,1.35l-11-9a5.22,5.22,0,0,0,.91-2.94A5.16,5.16,0,0,0,682.39,650ZM703,649.2,699.71,665a4.07,4.07,0,0,0-.61-.07,4.5,4.5,0,0,0-.63.07l-6.54-31.43a5.17,5.17,0,0,0,1.5-.71l6.78,8.15A5.14,5.14,0,0,0,703,649.2Zm22.79,36.61a5.14,5.14,0,0,0-2.84,1.65l-19.43-14.57a5.07,5.07,0,0,0,.81-2.75,5.12,5.12,0,0,0-.13-1.12L723.55,663a5.14,5.14,0,0,0,4.22,3.65l-1.13,19.11A5.48,5.48,0,0,0,725.75,685.81Zm-2.38-23.71-19.47,6.09a5.18,5.18,0,0,0-3.34-3l3.25-15.85a3.71,3.71,0,0,0,.48,0A5.17,5.17,0,0,0,707.8,648l15.84,11.72a5.26,5.26,0,0,0-.33,1.78C723.31,661.7,723.35,661.9,723.37,662.1ZM704.29,639a5.17,5.17,0,0,0-3.5,1.38l-6.7-8.06a5.11,5.11,0,0,0,1.47-2.93l13.67.87.47.74.13-.7,13.56.86a5.73,5.73,0,0,0,.21.84l-14.89,9.51A5.16,5.16,0,0,0,704.29,639ZM708,610l-8.9-1.62a4.23,4.23,0,0,0,.05-.5,5.16,5.16,0,0,0-.91-2.93l11.51-12.07a5,5,0,0,0,2.8,1.12v12.2A5.13,5.13,0,0,0,708,610Zm1.12-17.71-11.44,12a5.06,5.06,0,0,0-1.81-1.21l4.1-16.07,7.87,1.39c0,.16,0,.31,0,.47A5.17,5.17,0,0,0,709.07,592.29ZM698.9,609.23l8.9,1.62a3.87,3.87,0,0,0,0,.49,5.17,5.17,0,0,0,3.81,5l-2.31,12.37L698.08,611A5.06,5.06,0,0,0,698.9,609.23Zm13.52,7.25a4.36,4.36,0,0,0,.52,0,5.14,5.14,0,0,0,2.87-.87l8.9,11.19a5.1,5.1,0,0,0-1.39,3.45L710,629.45Zm-3.82-51.26,12.18-9.72a5.21,5.21,0,0,0,4.26,2.23,4.92,4.92,0,0,0,1.22-.16l5.38,16.15a5.17,5.17,0,0,0-2.67,2.64l-19.68-7a5.1,5.1,0,0,0,.19-1.3A5.21,5.21,0,0,0,708.6,565.22Zm-16.51-10.13a5.21,5.21,0,0,0-.87-2.08l20.32-17.1a5.07,5.07,0,0,0,5.75.33L722.55,548a5.15,5.15,0,0,0-2.69,4.46Zm54.77,6.68-10.23,12.45a5.14,5.14,0,0,0-2.94-.93,5.44,5.44,0,0,0-1.22.16l-5.39-16.14a5.21,5.21,0,0,0,2.68-2.63C734.37,556.52,741.43,559.47,746.86,561.77ZM729.3,549.59a5.18,5.18,0,0,0-4.26-2.24,5.28,5.28,0,0,0-1.7.31L718,535.73a5.19,5.19,0,0,0,1.77-3.09L748,535.57C742.15,540.12,734.16,546.2,729.3,549.59Zm-75-38.53-.41,0a5.17,5.17,0,0,0-3,1.19l-14.2-14.6h14.06a5.17,5.17,0,0,0,4.47,4.71Zm1.59-19-3-20.53,20.32,23.6a5.11,5.11,0,0,0-1.68,3.45L661,497.33c0-.14,0-.28,0-.42A5.17,5.17,0,0,0,655.84,492Zm25.2,9.58a5.14,5.14,0,0,0,.77-2.68,5.18,5.18,0,0,0-8-4.37l-20.09-23.33,28.58,12.38,10.85,24.62a5.22,5.22,0,0,0-1.44,1.16Zm17.57,6.91a5.14,5.14,0,0,0-3-.94h-.19l-1.87-15.5,10.71-22.16,5.84,17.73a5.17,5.17,0,0,0-.83,8Zm17.7-12.6a5.1,5.1,0,0,0,1.09-6.51l28.87-16.61-17.49,33.45a5.17,5.17,0,0,0-4.69.36Zm8.24,19.78a5,5,0,0,0,2.22.52,5.16,5.16,0,0,0,4.08-2l14.75,9.62-26,6.54a5.13,5.13,0,0,0-2-2.82ZM692.9,536.9a5.17,5.17,0,0,0,4.43-4.68h12.19a5.13,5.13,0,0,0,1.37,3.11l-20.22,17a5.33,5.33,0,0,0-1.84-1.18Zm-1.44,21.7a5.13,5.13,0,0,0,.72-2.6v0l27.75-2.61a5.34,5.34,0,0,0,.42,1.39l-12.3,9.82a5.14,5.14,0,0,0-7.73.25Zm12,14.61a6.11,6.11,0,0,0,.86.08,5.18,5.18,0,0,0,4.72-3.06l19.68,6.95a5.1,5.1,0,0,0-.19,1.3,5.19,5.19,0,0,0,.38,1.93l-11.53,5.76a5.15,5.15,0,0,0-9.41,1.37l-7.81-1.38Zm-17.47,15a5.14,5.14,0,0,0,2.57-3.24l10.53,1.86-4.07,16a5.49,5.49,0,0,0-1.08-.11,5.21,5.21,0,0,0-1.63.28Zm2.77,19.7a5.18,5.18,0,0,0,8.76,3.7l11.17,17.74-13-.84a5.19,5.19,0,0,0-5.18-5.08,5.1,5.1,0,0,0-3.61,1.48l-21.05-18.27Zm-27.49,31.23,24.47-8.43a5.2,5.2,0,0,0,2.43,2.53l-6.55,16.38a5,5,0,0,0-1.51-.25A5.15,5.15,0,0,0,676.3,651Zm23.51,47a5.15,5.15,0,0,0-4.24-7.37V659.72a5.14,5.14,0,0,0,3.29-1.54l11,9a5.1,5.1,0,0,0-.92,2.93,5.18,5.18,0,0,0,5.1,5.18l1,15.65c-.09,0-.17,0-.25,0a5.16,5.16,0,0,0-3.22,2.11ZM720.56,710a5.11,5.11,0,0,0-2.48,1.29l-13.16-12.07a5.12,5.12,0,0,0,1-3.68l15.93-3a5.16,5.16,0,0,0,4.66,3.5l-4,13.95A5.09,5.09,0,0,0,720.56,710Zm7.38-53.66a5.17,5.17,0,0,0-3.92,2.56l-15.64-11.56a5.05,5.05,0,0,0,.72-5.07L724,632.81a5.15,5.15,0,0,0,3.45,2.62Z"/></g><path class="cls-4" d="M861.23,618.38c.42-6.08.66-12.2.66-18.38,0-5.58-.24-11.1-.58-16.6a13.59,13.59,0,0,0-3-26.58c-1.37-8.23-3.17-16.33-5.29-24.29.19-.1.39-.15.57-.26a11.62,11.62,0,0,0-7.4-21.58A261.05,261.05,0,0,0,835,484.52a13.65,13.65,0,0,0-9.53-23.44,13.82,13.82,0,0,0-3.3.45,262.78,262.78,0,0,0-15.21-21.7,11.62,11.62,0,0,0-13.87-18.43c-.39.23-.72.52-1.08.78a264.34,264.34,0,0,0-23.26-22.26,13.52,13.52,0,0,0,2.07-7.15,13.62,13.62,0,0,0-23.64-9.28,261.34,261.34,0,0,0-48.33-26A11.63,11.63,0,0,0,678,350a260,260,0,0,0-62.71-11.42,13.57,13.57,0,0,0-25.88-.21,260.9,260.9,0,0,0-61.15,9.81,10.19,10.19,0,0,0-.73-1.62,11.61,11.61,0,0,0-21.23,8.95,260.79,260.79,0,0,0-53.41,28,13.63,13.63,0,0,0-23.65,9.28,13.44,13.44,0,0,0,2.08,7.15c-5.69,4.8-11.14,9.87-16.39,15.12a11.6,11.6,0,1,0-15.42,16.85,262.79,262.79,0,0,0-19.23,25.94,13.36,13.36,0,0,0-3.34-1.1,13.64,13.64,0,0,0-10.23,24.58c-3.82,7.48-7.25,15.19-10.36,23.06a11.58,11.58,0,1,0-7.53,21.9A258,258,0,0,0,341,561.45a13.59,13.59,0,0,0-2.55,26.43c-.19,4-.31,8-.31,12.12,0,8.5.45,16.88,1.25,25.17a11.58,11.58,0,0,0,3.15,22.59,259.72,259.72,0,0,0,7.16,29.2,13.6,13.6,0,0,0,9.22,25.24,259.39,259.39,0,0,0,18,34.82,11.59,11.59,0,0,0,12.9,19,264.94,264.94,0,0,0,27.34,31.27,13.84,13.84,0,0,0-1.42,4A13.66,13.66,0,0,0,437,804.77a262,262,0,0,0,56.72,34.51,14.81,14.81,0,0,0-.57,2,13.65,13.65,0,0,0,26,7.75,260.53,260.53,0,0,0,70.22,12.56,13.57,13.57,0,0,0,25.88-.21,260.29,260.29,0,0,0,64.58-12,13.62,13.62,0,1,0,24.51-9.26,262.57,262.57,0,0,0,61.06-37.28,13.61,13.61,0,0,0,20.18-18.28,263.22,263.22,0,0,0,24.14-27.93,11.56,11.56,0,0,0,12.4-18.1,261.68,261.68,0,0,0,19-36.34,13.47,13.47,0,0,0,2.56.26A13.62,13.62,0,0,0,850.34,677a261,261,0,0,0,8.37-36.29,11.58,11.58,0,0,0,2.52-22.28Zm-35.78-130a13.46,13.46,0,0,0,5.74-1.3,254.84,254.84,0,0,1,10.66,25.07,11.6,11.6,0,0,0,6.74,21.58c2,7.71,3.79,15.54,5.13,23.52a13.6,13.6,0,0,0-9.11,8.25l-24.27-4.86L824.61,541a4.83,4.83,0,0,0,2.31-.63,4.88,4.88,0,0,0-4.88-8.45c-.13.07-.23.16-.35.24L807.82,520l14.26-32.09A13.44,13.44,0,0,0,825.45,488.41Zm5,203.72L803.4,703.68l-4.28-16.83a4.81,4.81,0,0,0,1-7.5l11-17.16,21.19,19.1a13.24,13.24,0,0,0-1.82,10.84Zm-69.18,34.49,24.13-10.3-7.22,24.32a4.69,4.69,0,0,0-3.69,1.44L761,734a13.81,13.81,0,0,0,.66-4.19A14,14,0,0,0,761.28,726.62Zm-1.78-4.19a13.85,13.85,0,0,0-3.51-3.69l29-57.91a13.44,13.44,0,0,0,4,.66,13.11,13.11,0,0,0,3-.37l2.85,17a4.08,4.08,0,0,0-.71.32,4.87,4.87,0,0,0-1.78,6.66,4.8,4.8,0,0,0,1.8,1.78l-7,23.73ZM745.75,615.71V716.37a13.59,13.59,0,0,0-11.23,11.87l-59.72,3.14a13.63,13.63,0,0,0-11.27-10.48l-1.84-105a13.66,13.66,0,1,0-9.89-4l-44.21,69a13.55,13.55,0,0,0-11.14.22L548.07,612a13.93,13.93,0,1,0-11.83,3.73V720.94a13.57,13.57,0,0,0-9.87,7.15,13.73,13.73,0,0,0-1.27,4H465.4A13.26,13.26,0,0,0,454.25,721V615.7a13.57,13.57,0,0,0,.47-26.75l3.62-105.23a13.66,13.66,0,0,0,10.33-7.25,13.5,13.5,0,0,0,1.15-3.34l64.3,3.19A13.52,13.52,0,0,0,553.51,487l39.14,55.46a13.7,13.7,0,1,0,18.57-.57l36.09-59.06a13.56,13.56,0,0,0,18.5-10.39h68.74a13.4,13.4,0,0,0,.73,2.65,13.61,13.61,0,0,0,10.47,8.49V588.84a13.62,13.62,0,0,0,0,26.87ZM715,806.73l-19.34,8.06V797.9a13.57,13.57,0,0,0,6.8-3.29l12.86,9.51A4.84,4.84,0,0,0,715,806.73Zm-11-13.84a13.81,13.81,0,0,0,2.42-4.68l18,2-4.09,10.95a4.84,4.84,0,0,0-3,.6,4.6,4.6,0,0,0-.67.49Zm22.8-2.42,34.94,3.88a14.12,14.12,0,0,0,.26,1.86l-37.83,7.72c-.06-.13-.1-.26-.17-.38a4.81,4.81,0,0,0-1.49-1.58Zm-.74-4.66L707,783.68a13.73,13.73,0,0,0-2.47-7.12l35.64-35.64a13.24,13.24,0,0,0,2.23,1.27Zm9.06-51.51-32.35,13a4.85,4.85,0,0,0-6.38-1.38,4.79,4.79,0,0,0-1.21,1l-20.32-10.53c0-.17.08-.33.1-.5l59.72-3.14C734.83,733.3,735,733.8,735.15,734.3Zm-99.52,73.9a4.88,4.88,0,0,0-6.67-1.78,4.63,4.63,0,0,0-1,.77l-13.29-8.11a13.73,13.73,0,0,0,1.16-4.58l64.4-6.44a13.59,13.59,0,0,0,1.22,3l-34.16,27.33L636.09,812A4.85,4.85,0,0,0,635.63,808.2ZM589.77,698.71l-41.19,26.48a13.38,13.38,0,0,0-3.77-3l17.09-38.47a4.82,4.82,0,0,0,3.3-.55,5.1,5.1,0,0,0,1.51-1.37l22.17,9A13.76,13.76,0,0,0,589.77,698.71ZM589.15,790l-24.24-2.42L545.63,746a13.47,13.47,0,0,0,1.18-.79l44.06,40.91A13.74,13.74,0,0,0,589.15,790Zm.39,8.36-12.65,6.73a4.86,4.86,0,0,0-4.57-1.51l-5.2-11.23,21.58,2.14A13.36,13.36,0,0,0,589.54,798.33ZM468.15,764a4.89,4.89,0,0,0-6.67-1.78,4.68,4.68,0,0,0-1.13.93l-14.65-8,3.16-7.48a13.62,13.62,0,0,0,12-2.94l38.59,32.82c-.14.24-.32.44-.44.69a13.52,13.52,0,0,0-1.49,5.46L474,786.2l-7.07-15.92A4.87,4.87,0,0,0,468.15,764Zm-46.53-25.58a4.87,4.87,0,0,0-4.05-2.43l-3.5-16.79,24.74,11.53a13.64,13.64,0,0,0,5.86,15.1l-3,7.06-19.58-10.77A4.85,4.85,0,0,0,421.62,738.42Zm-53.87-57,20.13-20.52,14.27,20.93a4.84,4.84,0,0,0,3.44,8.1l4.69,22.52L369.2,693.26a14.33,14.33,0,0,0,.59-2.09A13.59,13.59,0,0,0,367.75,681.38Zm7.35-50a4.93,4.93,0,0,0-1.32-1.47l6-14.24,15.49,15.24a13.81,13.81,0,0,0-1,1.5,13.6,13.6,0,0,0,1.12,14.25l-8.48,8.65L374.49,637.1A4.88,4.88,0,0,0,375.1,631.41ZM379.75,536a4.9,4.9,0,0,0-6.67-1.79l-.08.06-11.75-11.75a11.68,11.68,0,0,0,2.56-8.72l23.43-5.2,20.36,41.6a13.73,13.73,0,0,0-3.31,3.32l-24.08-13.74A4.85,4.85,0,0,0,379.75,536Zm88.38-73,34.13-29.86L528.84,443a5.38,5.38,0,0,0,.07.69l-60.15,20.55C468.56,463.82,468.36,463.44,468.13,463.07Zm70.06-21.84,26-19.3,24.64,9.23a13.1,13.1,0,0,0-.27,2.6c0,.23,0,.45,0,.68l-50.37,7.16C538.25,441.48,538.24,441.35,538.19,441.23Zm77.49-10.07L640,422l24.06,17a.07.07,0,0,0,0,.05l-48.15-5.2v-.1A13.89,13.89,0,0,0,615.68,431.16Zm85.61,16.59a4.88,4.88,0,0,0-8,1.13l-19.85-7.7c0-.12,0-.23,0-.35l28.95-7.51,7.62,6.67Zm-62.32,25-24.85,9a13.63,13.63,0,0,0-10.51-6.88l0-6.62a4.87,4.87,0,0,0,2.35-4.61l22.76-7.77,11.42,8.3a13.54,13.54,0,0,0-1.47,6.05A14.33,14.33,0,0,0,639,472.75Zm-79.25-4.23,15.06-11.29,21.52,6.55a4.78,4.78,0,0,0,.64,2.7,4.85,4.85,0,0,0,4.39,2.42l-.05,5.92A13.65,13.65,0,0,0,589.77,483l-28.59-7.13c0-.36.11-.7.11-1.07A13.5,13.5,0,0,0,559.72,468.52Zm52.11-25,14.64,10.65-21.21,7.25a4.9,4.9,0,0,0-1.53-1.48l.11-12.61A13.63,13.63,0,0,0,611.83,443.51Zm-10.42,15.66a4.84,4.84,0,0,0-2.69.65,4.73,4.73,0,0,0-1.73,1.74l-19.91-6.06,15.81-11.86a13.57,13.57,0,0,0,8.62,3.74ZM590.18,440l-18.5,13.88-32.86-10L589,436.74A14.28,14.28,0,0,0,590.18,440Zm24.29-.17a14.13,14.13,0,0,0,1.22-3.65l48.09,5.17a.22.22,0,0,1,0,.08l-32,10.95Zm-84.78,6a4.86,4.86,0,0,0,6.45,1.49,4.77,4.77,0,0,0,1.53-1.39l31.71,9.65L557,464.86a13.61,13.61,0,0,0-22.71,6.94l-64.2-3.21a12.83,12.83,0,0,0-.49-2.21Zm30.44,34.38,28.59,7.15c0,.35-.11.69-.11,1A13.66,13.66,0,0,0,601.05,502l-.08,9.47a5.28,5.28,0,0,0-1.11.45,4.87,4.87,0,0,0,1,8.89l-.15,17.79a13.94,13.94,0,0,0-4.35,1.28l-39.14-55.45A13.69,13.69,0,0,0,560.13,480.22Zm43.09,40.71a4.57,4.57,0,0,0,1.52-.55,4.86,4.86,0,0,0-1.44-9l.08-9.38a13.65,13.65,0,0,0,12.56-13.61,13.22,13.22,0,0,0-.25-2.45l24.86-9a13.71,13.71,0,0,0,2.89,3.53l-36.09,59.06a13.61,13.61,0,0,0-4.28-1Zm39.61-60.49L634,454l30.62-10.47a4.81,4.81,0,0,0,8.06-.17l20.11,7.79a5.15,5.15,0,0,0,.31,1.58l-28.69,11.15a13.57,13.57,0,0,0-21.61-3.48Zm51.69-5.72a4.75,4.75,0,0,0,6.63-.3l33.58,13c0,.16-.1.31-.13.48H665.81a12.55,12.55,0,0,0-.48-1.85Zm7.83-2.33a4.91,4.91,0,0,0,0-2.58l9.4-8.31,24.65,21.57a13.58,13.58,0,0,0-1,2.13Zm36.94,7.37-24.18-21.2,11.34-10a4.81,4.81,0,0,0,3.34.79l11.66,28.95A15.34,15.34,0,0,0,739.29,459.76ZM713.37,437l-5.76-5,16.19-4.2ZM725,421.9l-36.62-12.24a13.24,13.24,0,0,0,.42-3.1l25.29-4.05,11.54,18.59A4.82,4.82,0,0,0,725,421.9Zm-.76,2.2a5,5,0,0,0,0,1.15l-18.8,4.88-18.78-16.47a14.57,14.57,0,0,0,.93-1.8Zm-23.93,7.37L673,438.57c0-.08-.06-.16-.1-.23a4.9,4.9,0,0,0-6.67-1.79,5.17,5.17,0,0,0-.75.55L642.67,421l20.7-7.78A13.5,13.5,0,0,0,683.75,417ZM662,402.73l-54.88-10.81,32.42-13.61,24,21A13.93,13.93,0,0,0,662,402.73Zm-.43,2.28a13.36,13.36,0,0,0-.1,1.42,13.78,13.78,0,0,0,.26,2.59l-23.55,8.84-33-23.29a3.81,3.81,0,0,0,.34-.58Zm-26,13.83L614,426.91a13.55,13.55,0,0,0-23.52,0L568.6,418.7l30.3-22.46a4.86,4.86,0,0,0,4.61,0ZM566,417.72l-23.2-8.7a13.78,13.78,0,0,0,.26-2.59,14.5,14.5,0,0,0-.11-1.49L596.77,394c.06.12.1.24.17.36a2.83,2.83,0,0,0,.2.28Zm-23.49-15.06A13.94,13.94,0,0,0,541,399.3l25.06-21.93,29.71,14.47Zm-1.35,10.61L561.65,421l-24.84,18.41a4.88,4.88,0,0,0-5.55-.48,4.79,4.79,0,0,0-1.79,1.84l-25.22-9.26L520.81,417a13.5,13.5,0,0,0,20.36-3.7Zm-41.79,16.41-19-7a5.36,5.36,0,0,0,0-1.06l36.31-10.34a13.34,13.34,0,0,0,1.09,2.25Zm-19.8-10.22a4.85,4.85,0,0,0-.6-.74l9.83-16.39,26.95,4.25a12.85,12.85,0,0,0,.29,2.5Zm0,5.43,17.8,6.53-32.21,28.19a13.87,13.87,0,0,0-2.37-1.56c-.21-.11-.43-.18-.65-.28l11.69-31a4.87,4.87,0,0,0,4.15-.32A4.8,4.8,0,0,0,479.58,424.89ZM460,457a14,14,0,0,0-3.51-.42l-5.87-33.26h20.26a5.12,5.12,0,0,0,.49,1.28,5.26,5.26,0,0,0,.55.76Zm-6.16,26.51-3.63,105.23a13.82,13.82,0,0,0-5.4,2l-18.57-20.89a14.21,14.21,0,0,0,1.49-2.28A13.61,13.61,0,0,0,423.12,550l30-66.6C453.32,483.46,453.56,483.47,453.79,483.52Zm-13.07,167.7a4.83,4.83,0,0,0-4.58-3.61l-5.51-25.34,12.29-9.83a13.31,13.31,0,0,0,2.78,2,13.7,13.7,0,0,0,4,1.27V717.17L438,656.88A4.85,4.85,0,0,0,440.72,651.22Zm-47-64a3.3,3.3,0,0,0-.22-.3l13.45-15a13,13,0,0,0,4.85,2.54l-6,50.7a13.73,13.73,0,0,0-7.3,2.56l-16.78-16.5,7-16.73a4.85,4.85,0,0,0,5-7.23Zm22.52-12.34c.35,0,.69-.08,1-.12l4.86,19.88a4.86,4.86,0,0,0,2.12,9.18l3.29,15.11-12,9.63a13.87,13.87,0,0,0-2.8-2,13.48,13.48,0,0,0-2.43-1Zm10.29,28.46a4.87,4.87,0,0,0-2.14-9.24l-4.86-19.81a13.5,13.5,0,0,0,3.28-1.5l18.53,20.92a13.7,13.7,0,0,0-1.29,15.2l-10.49,8.4ZM419,548.08a14.35,14.35,0,0,0-2.75-.39V506a5.12,5.12,0,0,0,1.28-.49,4.87,4.87,0,0,0,2-6.25l26.22-20.81a13.66,13.66,0,0,0,3.24,3.05Zm-.92-50.67a4.92,4.92,0,0,0-2.39-1l-2.82-24h30.26a13.71,13.71,0,0,0,1.34,4Zm-4.15,50.36a13.05,13.05,0,0,0-2.24.44l-19.86-40.59,18.91-4.2c0,.09.07.19.12.28a4.83,4.83,0,0,0,3.07,2.29Zm-8.64,22.49-13.5,15.1a4.87,4.87,0,0,0-6.52,6.74,4.94,4.94,0,0,0,1.37,1.5l-6.7,15.85-26.55-26.1a13.49,13.49,0,0,0,2.75-6,13.72,13.72,0,0,0,.21-2.77L402.75,566A13.52,13.52,0,0,0,405.27,570.26Zm2.59,119.15c.12-.06.23-.09.34-.15a4.87,4.87,0,0,0-4.14-8.79l-14.52-21.3,9.11-9.3a13,13,0,0,0,1.51,1,13.6,13.6,0,0,0,10,1l34,71.4a13.41,13.41,0,0,0-3.36,3.4l-27.88-13Zm6.39-39.57a13.44,13.44,0,0,0,4.32-4.85,13.66,13.66,0,0,0-.2-12.91l10.23-8.19,5.26,24.19a4.86,4.86,0,0,0,1.9,9.23L448,720.76Zm49.44,91.45c.13-.23.3-.42.43-.66a11.24,11.24,0,0,0,.58-1.45l33.9,10.67a4.76,4.76,0,0,0,.64,2.75,4.87,4.87,0,0,0,9-3.36l18.3-8.45a13.21,13.21,0,0,0,3.53,4.29l-14.46,26.51A13.63,13.63,0,0,0,502.38,774Zm1.63-4.36c0-.1.05-.19.07-.29h59.7a14,14,0,0,0,.53,2l-18.36,8.47a4.83,4.83,0,0,0-7.95.51Zm68.77,10.3a13.61,13.61,0,0,0,9.46-.23l18.67,40.28-37.45-3.75a13.61,13.61,0,0,0-5.14-9.79Zm77.35-63.93,44.09-68.78a12.27,12.27,0,0,0,1.59.64l0,2-17.18,57a4.85,4.85,0,0,0-5.26,5.65l-19.82,8.52A13.73,13.73,0,0,0,611.44,683.3ZM609.38,705a13.38,13.38,0,0,0,2.63-2.08l37.14,25.72a13.43,13.43,0,0,0-1.33,5.77,13.62,13.62,0,0,0,1.62,6.45l-14.83,10.35a4.83,4.83,0,0,0-4.15-1.11Zm19,46.08a4.59,4.59,0,0,0-1,1.14l-25.05-8.72V707a13.63,13.63,0,0,0,5-1Zm-13.73-51.89a13.53,13.53,0,0,0,1-8.59l20.06-8.63a4.83,4.83,0,0,0,4.17,1.92l14.47,39a13.63,13.63,0,0,0-2.57,2ZM659,721a13.73,13.73,0,0,0-2.6.8l-14.32-38.6a4.87,4.87,0,0,0,1.7-6.6,4.75,4.75,0,0,0-1.58-1.63l15.12-50.14ZM590.14,687.1a12,12,0,0,0-.65,1.47l-21.92-8.89a4.83,4.83,0,0,0-5.11-5.54l-18.58-59.38c.15-.07.31-.11.46-.18l48.38,69.11A13.5,13.5,0,0,0,590.14,687.1ZM540.79,721V615.7c.3-.05.58-.14.88-.21l18.56,59.33a4.88,4.88,0,0,0-.46,8l-17.13,38.53A17.08,17.08,0,0,0,540.79,721Zm61.49,25,24.27,8.44a4.88,4.88,0,0,0,7.29,4.68,4.92,4.92,0,0,0,1.31-1.12l45.44,22a13.77,13.77,0,0,0-.79,3.59L615.41,790a13.62,13.62,0,0,0-13.13-10.1Zm82,48.7a10.79,10.79,0,0,0,1.08.84l-19.75,29.23a4.76,4.76,0,0,0-5.2,1.21l-8.88-5.08Zm-2.78-16.79-45.38-22a4.84,4.84,0,0,0-.22-2.76l14.78-10.32A13.66,13.66,0,0,0,666.8,747l17.44,27.41A13.62,13.62,0,0,0,681.54,777.83Zm62-320.52-11.64-28.87a4.83,4.83,0,0,0,1.74-2.32l17.07,1.71-3.41,28.78A13.7,13.7,0,0,0,743.58,457.31Zm76.67,81.28a4.82,4.82,0,0,0,2.08,1.95l-4.27,19.68-15.42-3.09c0-.13,0-.26,0-.4a13.65,13.65,0,0,0-6.11-11.38l10.26-23.09,13.32,11.65A4.87,4.87,0,0,0,820.25,538.59Zm-27.86,4.95a13.72,13.72,0,0,0-3.09-.45l-.77-34.81a4.86,4.86,0,0,0,1.17-.47c.12-.07.22-.16.34-.24l13.2,11.55ZM796,568.4l13.11,18.11a4.91,4.91,0,0,0-1.15,2.88l-16.69,3.12V570.17A13.57,13.57,0,0,0,796,568.4Zm-4.73,40.4,18.14,12.45-13.23,15a13.69,13.69,0,0,0-4.91-1.85Zm10.13,44.68,7.92,7.13L798.13,678.1a4.84,4.84,0,0,0-1-.23l-2.91-17.45A13.71,13.71,0,0,0,801.42,653.48Zm-.31-11.85a14,14,0,0,0-1.51-2.35l13.61-15.43,11.52,7.9a4.86,4.86,0,0,0-.42,1.44ZM811,619.49,791.29,606v-11.1l17.14-3.21a4,4,0,0,0,.19.43,4.86,4.86,0,0,0,4.74,2.4l5.71,15.82Zm1.73-34.69a4.77,4.77,0,0,0-1.69.35L797.9,567a13.7,13.7,0,0,0,3.85-5.44l15.34,3.07Zm-8.48-67.91-12.65-11.06a4.85,4.85,0,0,0-2.42-6.72l3.87-24,18.91,1.12a13.62,13.62,0,0,0,6,9.89Zm-17.37-18.15a4.78,4.78,0,0,0-2,.62,3.48,3.48,0,0,0-.48.35l-25.75-21a13.61,13.61,0,0,0,2.75-5.47L790.69,475Zm-4,2.76a4.86,4.86,0,0,0,3.35,6.84l.78,34.92c-.56.1-1.11.22-1.65.37l-29.5-62.27a14.84,14.84,0,0,0,1.14-1Zm-2.8,93.12c-.07-.14-.12-.29-.2-.43a4.88,4.88,0,1,0-1.78,6.67,5.94,5.94,0,0,0,.81-.58l7.86,5.4v28.43l-27.2-24.53a13.43,13.43,0,0,0-.85-15.75l23-25.58a13.65,13.65,0,0,0,5,1.92v23.2Zm6.69,1.11v7.12l-6.57-4.51a4.43,4.43,0,0,0,.32-1.43Zm-5.54-50.18a13.52,13.52,0,0,0-2.85,19.63l-23,25.58a13.59,13.59,0,0,0-5-1.92V483.67c.47-.08.94-.26,1.41-.39Zm-30.9,70.16a13.56,13.56,0,0,0,6.16-2.76l25.67,23.14A13.55,13.55,0,0,0,781,658.82l-29,58a16,16,0,0,0-1.69-.42Zm46,71.86a3.62,3.62,0,0,0,.57,0l4.34,17.06-11.4,4.86Zm6.29-39.14c0-.21.06-.4.06-.61a13.21,13.21,0,0,0-.67-4l22.57-8.21a5.1,5.1,0,0,0,.32.72v0l-13.08,20.42Zm12.14-26.34,6.08-6.88,5.31,14.7Zm6.07-13.76-5.29-14.63a4.87,4.87,0,0,0-.55-8.43l4.38-20.15L843.71,570c0,.14,0,.27,0,.4a13.51,13.51,0,0,0,3.09,8.55ZM803.07,442.28a256.86,256.86,0,0,1,14.84,21.09,13.7,13.7,0,0,0-5.75,8.31l-18.4-1.08,4.44-27.52A11.46,11.46,0,0,0,803.07,442.28Zm-45.19-35.93a13.46,13.46,0,0,0,7.82-3,256.85,256.85,0,0,1,23.22,22.25,11.38,11.38,0,0,0-1.38,3.59l-32-3.2Zm29.43,25.14a11.48,11.48,0,0,0,8.59,11.22l-4.48,27.76-29.86-1.76a13.27,13.27,0,0,0-9.69-11.57l3.42-28.86Zm-33.95-25.66L751,425.52l-17.1-1.71a5,5,0,0,0-.6-1.75,4.87,4.87,0,0,0-5.74-2.2l-11-17.74,27.84-4.45A13.59,13.59,0,0,0,753.36,405.83ZM697.73,362a256.52,256.52,0,0,1,46.9,25.27,13.73,13.73,0,0,0-1.16,5.49c0,.15,0,.29,0,.44L714,397.94,694.3,366.21A11.44,11.44,0,0,0,697.73,362Zm-20.57.84a11.59,11.59,0,0,0,15.16,4.59l19.18,30.9-23.45,3.76a13.52,13.52,0,0,0-21.55-6.16l-22.32-19.57L677,362.58C677.08,362.67,677.11,362.76,677.16,362.85ZM615.89,343.2A256.69,256.69,0,0,1,676,354.15a11.51,11.51,0,0,0,.15,6.29l-33.9,14.23-28.35-24.86A13.67,13.67,0,0,0,615.89,343.2Zm-22.21,10a13.4,13.4,0,0,0,17.19,0l26.74,23.4-32,13.42a4.25,4.25,0,0,0-.24-.54,4.87,4.87,0,0,0-8.59.26l-28.83-14ZM529,352.69A256.33,256.33,0,0,1,588.64,343a13.7,13.7,0,0,0,2,6.85l-27.14,23.75-35.24-17.17A11.57,11.57,0,0,0,529,352.69ZM512.47,362.9a11.47,11.47,0,0,0,14.8-4.42l34.36,16.73L538,395.89a13.52,13.52,0,0,0-21.49,6.2l-25.17-4Zm-4.13-3.32a12.27,12.27,0,0,0,2.13,2.13l-21.61,36-32.34-5.11a13.76,13.76,0,0,0-1.15-5.33A256.38,256.38,0,0,1,508.34,359.58Zm-52.58,37.53,30.58,4.82L477,417.52a4.83,4.83,0,0,0-6.16,3.49H450.16l-2.72-15.42A13.62,13.62,0,0,0,455.76,397.11Zm-21.46,6.22a13.52,13.52,0,0,0,8.57,3.1H443L445.54,421H417.32a11.32,11.32,0,0,0-.32-1.62C422.53,413.79,428.28,408.41,434.3,403.33Zm-22.72,28.91a11.57,11.57,0,0,0,5.73-8.91H446l6,34a13.2,13.2,0,0,0-8.83,10.56h-30.8l-4.05-34.45A11.26,11.26,0,0,0,411.58,432.24Zm-7.6,1.37a11.79,11.79,0,0,0,2,.14l4,34.17H388a13.68,13.68,0,0,0-4-7.57A261.29,261.29,0,0,1,404,433.61Zm-16,38.94v-.08h22.5l2.85,24.23a6.81,6.81,0,0,0-.73.33,4.88,4.88,0,0,0-2.42,4.12l-19.45,4.32-11.08-22.65A13.64,13.64,0,0,0,388,472.55Zm-17.22,10.71a12.53,12.53,0,0,0,1.4.39,14.38,14.38,0,0,0,2.91.19l11.09,22.65-22.88,5.08a12.65,12.65,0,0,0-1-2.17,12,12,0,0,0-2.1-2.58A255.38,255.38,0,0,1,370.79,483.26Zm-17.42,43.51a11.52,11.52,0,0,0,4.71-1.48,12,12,0,0,0,1.52-1.09L371.37,536a4.86,4.86,0,0,0,6.59,6.74,5,5,0,0,0,1.11-.91l24.09,13.78a13.53,13.53,0,0,0-1.22,5.9l-46.56,8.6a13.61,13.61,0,0,0-9.84-8.45A253.49,253.49,0,0,1,353.37,526.77Zm5.32,148.59a13.4,13.4,0,0,0-4.73,0A255.26,255.26,0,0,1,347,647a11.57,11.57,0,0,0-3.12-22.4c-.78-8.11-1.22-16.32-1.22-24.64,0-3.82.12-7.62.28-11.4a13.56,13.56,0,0,0,7.06-2.18L378,614l-6.37,15.1a4.75,4.75,0,0,0-3.21.57,4.87,4.87,0,0,0,4.14,8.78L385.27,657l-20.63,21A13.38,13.38,0,0,0,358.69,675.36ZM419.93,783.6a259.14,259.14,0,0,1-26.47-30.35,11.57,11.57,0,0,0-12.66-18.61,257,257,0,0,1-17.65-34.06,13.77,13.77,0,0,0,3.85-3.32L411.44,718l3.86,18.5a3.49,3.49,0,0,0-.34.15,4.88,4.88,0,1,0,6,7.52l19.82,10.9-10.53,25A13.54,13.54,0,0,0,419.93,783.6Zm14.81-2.48,10.06-23.86,14.41,7.92a4.85,4.85,0,0,0,5.56,6.05l6.77,15.23-29.31,3.17A13.63,13.63,0,0,0,434.74,781.12Zm70.65,49a13.62,13.62,0,0,0-9.46,5.15,258.19,258.19,0,0,1-55.68-33.74,13.5,13.5,0,0,0,2.41-5.6,11.91,11.91,0,0,0,.13-1.77l30.69-3.33,6.07,13.65a4.87,4.87,0,0,0,5.42,8.06,4.92,4.92,0,0,0,1.61-1.53l19.73,7.1Zm1.11-14.41-19.13-6.89a4.84,4.84,0,0,0-5.7-5.29l-5.76-13,22.16-2.4a13.35,13.35,0,0,0,9.81,9.52Zm82.14,41.34a256.26,256.26,0,0,1-68.45-12.44,13.57,13.57,0,0,0-10.26-14.13l.83-10.77,25.08,9a4.85,4.85,0,0,0,8.52,3.69l44.49,22.63A14.42,14.42,0,0,0,588.64,857.05Zm.84-4.28-44.06-22.4a4.82,4.82,0,0,0-.51-3.56,4.88,4.88,0,0,0-6.67-1.78,4.79,4.79,0,0,0-1.6,1.53l-25.7-9.25L512.43,798a13.75,13.75,0,0,0,7.83-3.4l70.12,56.1A13.19,13.19,0,0,0,589.48,852.77Zm8.24-8.26a13.71,13.71,0,0,0-4.5,2.66L523.1,791.08c.07-.12.16-.22.23-.35a14.28,14.28,0,0,0,1-2.67l40.07,4,5.78,12.47a4.87,4.87,0,1,0,7.75,2.61l12.58-6.7a13.64,13.64,0,0,0,7.18,6Zm0-63.77a13.9,13.9,0,0,0-3.73,2l-44.11-41a12,12,0,0,0,.77-1.18,13.32,13.32,0,0,0,1.27-3.77l21.24.41a4.84,4.84,0,0,0,8.82,1.58l15.74,5.48Zm0-38.87-15-5.21a4.94,4.94,0,0,0-.62-2.9,4.88,4.88,0,0,0-9,1.24l-21-.45A13.81,13.81,0,0,0,551,729l41.19-26.47a13.63,13.63,0,0,0,3.8,3,13.83,13.83,0,0,0,1.71.68Zm13.61,105.3a13.55,13.55,0,0,0-9.05-3.5V807.24a13.49,13.49,0,0,0,11.28-6.12l13.21,8.06a4.8,4.8,0,0,0,.41,3.9,4.87,4.87,0,0,0,6.66,1.79,4.67,4.67,0,0,0,1.08-.88l10.44,6Zm3.75,5.61a14.39,14.39,0,0,0-.91-2l35.44-28.35,9.67,5.52a4.91,4.91,0,0,0,0,2.44Zm76-18a13.6,13.6,0,0,0-10.78,9.65,255.87,255.87,0,0,1-64.42,12.36,13.87,13.87,0,0,0-.19-1.73l44.58-22.64a4.86,4.86,0,0,0,8.5-3.92l22.31-9.31Zm0-18.1-23.21,9.68c-.1-.13-.19-.27-.29-.39l19.79-29.29a13.68,13.68,0,0,0,3.71,1.21Zm-3-44.82-17.45-27.41a13.45,13.45,0,0,0,3.72-5.7L694.13,749a4.78,4.78,0,0,0,.51,3.58,4.88,4.88,0,0,0,9.05-3.13l32.41-13.05c.25.44.52.87.81,1.28l-35.64,35.64a13.62,13.62,0,0,0-13.21-1.47Zm12.71,64.9a13.64,13.64,0,0,0-5.12-2V817.3l20.23-8.44a4.85,4.85,0,0,0,8.78-2.67l38-7.74c.07.2.12.43.2.63A258,258,0,0,1,700.77,836.77Zm74.4-56.85a13.63,13.63,0,0,0-12.9,9.91l-33.8-3.76L744.55,743a13.45,13.45,0,0,0,15.57-6.82l13.18,7.92a4.85,4.85,0,0,0,3.3,6.11Zm6.86,1.8a14,14,0,0,0-4.55-1.62l1.41-29.82a4.92,4.92,0,0,0,1.5-.54,4.85,4.85,0,0,0,2.29-3.07h18.65a11.54,11.54,0,0,0,4.28,7.88A258.39,258.39,0,0,1,782,781.72Zm19.3-37.37H782.67a4.58,4.58,0,0,0-2.26-3l7.75-26.18,14.21-6.06,6.5,25.54A11.58,11.58,0,0,0,801.33,744.35Zm17.34-8.85a11.43,11.43,0,0,0-5.82-1.62,12.08,12.08,0,0,0-1.72.17l-6.59-25.9,27.72-11.84a13.73,13.73,0,0,0,4.59,4.28A258.41,258.41,0,0,1,818.67,735.5Zm38-117.9a11.59,11.59,0,0,0-2.59,22.82,255.23,255.23,0,0,1-8.07,35,13.34,13.34,0,0,0-2.38-.24,13.58,13.58,0,0,0-8.25,2.84L813.58,658.3l13-20.3a4.87,4.87,0,1,0,1.72-8.94l-5.72-15.84L850.16,582a13.52,13.52,0,0,0,6.63,2c.33,5.3.55,10.62.55,16C857.34,605.92,857.11,611.78,856.71,617.6Z"/></svg>