<svg id="Layer_1" data-name="Layer 1" xmlns="http://www.w3.org/2000/svg" xmlns:xlink="http://www.w3.org/1999/xlink" viewBox="0 0 1200 1200"><defs><style>.cls-1{opacity:0.2;}.cls-2{fill:url(#linear-gradient);}.cls-3{fill:url(#linear-gradient-2);}.cls-4{fill:url(#linear-gradient-3);}.cls-5{fill:#606060;}</style><linearGradient id="linear-gradient" x1="258.48" y1="601.84" x2="332.07" y2="601.84" gradientUnits="userSpaceOnUse"><stop offset="0.02" stop-color="#2e7ab9"/><stop offset="0.2" stop-color="#3080c1"/><stop offset="1" stop-color="#246399"/></linearGradient><linearGradient id="linear-gradient-2" x1="369.11" y1="601.02" x2="438.23" y2="601.02" xlink:href="#linear-gradient"/><linearGradient id="linear-gradient-3" x1="348.43" y1="445.73" x2="348.43" y2="749.9" gradientUnits="userSpaceOnUse"><stop offset="0.02" stop-color="#2e7ab9"/><stop offset="0.16" stop-color="#0f3e82"/><stop offset="0.48" stop-color="#1e5c9f"/><stop offset="0.81" stop-color="#3080c1"/><stop offset="1" stop-color="#246399"/></linearGradient></defs><g class="cls-1"><path class="cls-2" d="M323.1,582a3.11,3.11,0,0,0-2.77,1.38l-9-7.21a3,3,0,0,0,.9-3.78l7.09-4.13a3.09,3.09,0,0,0,5.63-1.57,3.09,3.09,0,0,0-1.47-2.82l8.58-21-10.35,3.45-5.57-7.83,3.48-13-11.41,5.29L296,529.28v0a3.11,3.11,0,0,0-6.21,0,3.56,3.56,0,0,0,.05.47l-5.81,2.88a3.12,3.12,0,0,0-2.51-1.28,3.07,3.07,0,0,0-2.62,1.47L262.41,522.7l9.35,20.39a3.07,3.07,0,0,0-.85,4.69l-9,9,7.46,2.69,3.48,8.42a3.07,3.07,0,0,0-1.59,2l-10.71-1.67,7.15,15.15a3.09,3.09,0,1,0,4,4.36l6.89,3.45a2.91,2.91,0,0,0-.23,1.15,3,3,0,0,0,.18,1l-20.14,8.91,20,4.19a3.07,3.07,0,0,0,.87,1.56l-5.4,6.59a3.1,3.1,0,1,0,.8,4.32l9.12,5.2a3,3,0,0,0-.3,1.31,3.1,3.1,0,0,0,3.1,3.1,3.42,3.42,0,0,0,.45,0l2.18,9.39a3.09,3.09,0,0,0-2.41,1.94l-11.65-3.43a3.18,3.18,0,0,0,.06-.62,3.1,3.1,0,1,0-3.18,3.09l.67,11.42a3.1,3.1,0,1,0,3.41,3.92l9.47,1.89a3.09,3.09,0,0,0,1,2.64l-7.62,7.6a3,3,0,0,0-2.1-1.55,3.08,3.08,0,0,0-3.3,4.55L260.88,678l.29.43L274,669.72a3.06,3.06,0,0,0,5.13-.52L312.47,681l.17-.49-33.33-11.77a2.07,2.07,0,0,0,.1-.33,2.2,2.2,0,0,0,0-.36h17.62a3.1,3.1,0,1,0,3.69-3.29,1.1,1.1,0,0,0-.18,0l.69-12.46a3.12,3.12,0,1,0-2.88-1.76l-7.08,4.13a3.11,3.11,0,0,0-1.92-1.27h0l.83-9.4a3.08,3.08,0,0,0,2.18-4.82l6.59-5.39a3.1,3.1,0,1,0,3.38-5l8.07-26.29,1.5,1.7,8.93-16.75a3,3,0,0,0,1.85.78,3.1,3.1,0,1,0,.41-6.19Zm-30.18,18.61a3.1,3.1,0,0,0-3.11,3.1c0,.05,0,.1,0,.15l-5.32,1.06a3,3,0,0,0-1-1.51l3.38-4.82,9.9-7.32.19.21-4,9.13ZM276.37,545.7a3.09,3.09,0,0,0-1.08-2.25l4.65-6.39a3.09,3.09,0,0,0,3.38-.11l6.39,7.66a3,3,0,0,0-.89,1.81Zm23.78-6.12a3.08,3.08,0,0,0,2.34-1.08l8,10.18a3.33,3.33,0,0,0-.66.87L295.62,542l2.33-3.31A3.07,3.07,0,0,0,300.15,539.58Zm6.22,34.29-9.4-1.56a3,3,0,0,0,.08-.68,3.13,3.13,0,0,0-.56-1.78l5.26-6.06,5.19,8.1a3.16,3.16,0,0,0-.58,1.6C306.35,573.62,306.37,573.75,306.37,573.87Zm-24.57,28.8v-7.29a3.13,3.13,0,0,0,1.55-.56l3,3.57-3.29,4.69A3.06,3.06,0,0,0,281.8,602.67Zm10.34-28.53-3.86,3.1a3.09,3.09,0,0,0-3.68,4.92l-2.34,7.14a2.52,2.52,0,0,0-.55-.08L281.17,571l9.71.29c0,.1,0,.2,0,.3A3.11,3.11,0,0,0,292.14,574.14Zm-8.4,20.35a3.07,3.07,0,0,0,.9-2.18,3,3,0,0,0,0-.43L296,589.29a3.13,3.13,0,0,0,.47,1.54l-9.74,7.2Zm12.32-5.74-11.57,2.63a3.12,3.12,0,0,0-1.74-1.93l2.29-7a3,3,0,0,0,1.67.5,3.09,3.09,0,0,0,2.6-1.42l7.89,5.2A3.11,3.11,0,0,0,296.06,588.75Zm-7.34-11.2,3.89-3.13a3.18,3.18,0,0,0,1.34.31,3.09,3.09,0,0,0,2.86-1.92l9.33,1.55L289.65,579A3.15,3.15,0,0,0,288.72,577.55Zm7.43-8.1a3.09,3.09,0,0,0-5.18,1.36l-9.82-.29-.27-9.27a3.06,3.06,0,0,0,2.7-2.8h12.55a2.81,2.81,0,0,0-.11.77,3.1,3.1,0,0,0,3.1,3.11,3.07,3.07,0,0,0,1.45-.38l.89,1.38Zm-1.31-21.76,14.63,3v0a3.18,3.18,0,0,0,.27,1.45l-8.59,4.69a3.11,3.11,0,0,0-2-.77,3.05,3.05,0,0,0-1.44.37l-4.42-6.91A3.07,3.07,0,0,0,294.84,547.69Zm6.16,14a3.05,3.05,0,0,0,.49-4.42l8.49-4.6a2.71,2.71,0,0,0,.36.46l-8.53,9.83ZM309.6,550l-.05.17-14.6-3c0-.12,0-.25,0-.37a3.1,3.1,0,0,0-1.11-2.37l1.45-2.06Zm-16.16-5.89a3.07,3.07,0,0,0-1.56-.43,3.13,3.13,0,0,0-1.78.56l-6.38-7.66a3.61,3.61,0,0,0,.25-.3l10.89,5.82Zm-3.62,5a3.1,3.1,0,0,0,2.06.8,3,3,0,0,0,.9-.15l4.47,7a3.15,3.15,0,0,0-.94,1.17H283.58a3.05,3.05,0,0,0-.95-2Zm-9.46,12.16.28,9.23-3.25-.1a3.07,3.07,0,0,0-1.47-2.45l3.44-6.89A3.3,3.3,0,0,0,280.36,561.28Zm-3,9.65,3.28.1.54,18.21-.31,0-5-16A3,3,0,0,0,277.37,570.93Zm21.75,15.17a3.14,3.14,0,0,0-1.44.37l-8.12-5.35a3.09,3.09,0,0,0,.25-1.22,3.27,3.27,0,0,0,0-.44l16.78-4.68a3.13,3.13,0,0,0,1.65,1.74l-7.95,9.8A3.25,3.25,0,0,0,299.12,586.1ZM312,571.92a3.1,3.1,0,0,0-2.32-1.32,3,3,0,0,0-2.36.89l-5.2-8.1,8.63-9.94a3,3,0,0,0,1.62.6,3.17,3.17,0,0,0,1.57-.32L320.06,564a3.05,3.05,0,0,0-1,3.83Zm18.28-27.36-7.72,18.89a.9.9,0,0,0-.16,0V547.24l0,0Zm-8.92,18.85a3,3,0,0,0-.84.28l-6.14-10.23a3.05,3.05,0,0,0,.95-3.91l6-2Zm-.64-16.75-6.05,2a3.33,3.33,0,0,0-1-.64l2.21-8.27Zm-2.64-19.3-2.74,10.24-6.12-6.13ZM315,538.75l-2.44,9.11a3.07,3.07,0,0,0-1.71.51l-8.06-10.31a3,3,0,0,0-.24-3.51l5.64-2.62Zm-24.82-8a3.09,3.09,0,0,0,5.63-.4l10.63,1.3-4.75,2.21a3,3,0,0,0-1.55-.43,3.09,3.09,0,0,0-2.54,4.87l-2.45,3.47-10.9-5.84a3,3,0,0,0,.38-1.47,3.31,3.31,0,0,0-.14-.89ZM263.59,524l15.09,9.21a3.06,3.06,0,0,0-.24,1.17,3.11,3.11,0,0,0,1.08,2.34l-4.65,6.39a3,3,0,0,0-2.65-.26Zm6.25,35.09,0-.1-6.91-2.49,8.39-8.39a3.06,3.06,0,0,0,2,.75,3.1,3.1,0,0,0,3.06-2.67l12.46.72a3.12,3.12,0,0,0,.68,1.81l-7.24,6.86a3.06,3.06,0,0,0-1.72-.52,3.09,3.09,0,0,0-1.61,5.74l-3.44,6.89a3.19,3.19,0,0,0-1.15-.23,3.25,3.25,0,0,0-.94.16Zm-8.37,9.74,9.76,1.52a1.46,1.46,0,0,0,0,.22,3.12,3.12,0,0,0,1.88,2.85l-3.21,9.65a3,3,0,0,0-.73-.1,3.12,3.12,0,0,0-.92.16ZM272,587.25a2.91,2.91,0,0,0,.23-1.15,3.11,3.11,0,0,0-1.88-2.85l3.21-9.65a3,3,0,0,0,.74.1,3.09,3.09,0,0,0,1.14-.23l4.93,16a3.11,3.11,0,0,0-1.48,1.27ZM260.15,602l18.68-8.26a3.09,3.09,0,0,0,2.45,1.6v7.29a3.09,3.09,0,0,0-2.84,3.08s0,.08,0,.12ZM275,618.42a3,3,0,0,0,.3-1.3,3.07,3.07,0,0,0-.95-2.23l5.4-6.59a3.06,3.06,0,0,0,3.57,0l9.2,5.92a3.07,3.07,0,0,0-.68,1.91,3.1,3.1,0,0,0,.86,2.14l-4.17,4.7a3.08,3.08,0,0,0-4.41.71Zm23.42,11.72-8.82-3.78a3,3,0,0,0-.69-3.1l4.18-4.7a3,3,0,0,0,2.76.48l3.91,9.79A3.14,3.14,0,0,0,298.46,630.14Zm.19,20.81a3.14,3.14,0,0,0,2.11,1.28l-.69,12.45a3.1,3.1,0,0,0-3,2.49c0,.11,0,.23,0,.35H279.45a2.88,2.88,0,0,0-.15-.72l7.81-7.79a3.08,3.08,0,0,0,4.71-2,3,3,0,0,0-.25-1.93Zm-12.84,4.6-9.47-1.9a3.1,3.1,0,0,0-2.46-3.39,3.17,3.17,0,0,0-.53,0l-.67-11.43a3.07,3.07,0,0,0,2.44-1.93l11.65,3.42a3.21,3.21,0,0,0-.06.63,3.08,3.08,0,0,0,3,3.08l-.83,9.33A3.09,3.09,0,0,0,285.81,655.55ZM292,638.74a3.1,3.1,0,0,0-2.18-.94l-2.2-9.47a3.13,3.13,0,0,0,1.78-1.49l8.82,3.78a2.88,2.88,0,0,0-.18,1,3.14,3.14,0,0,0,.55,1.76Zm9.8-10.18a3.5,3.5,0,0,0-.65-.07,3,3,0,0,0-.91.15l-3.91-9.79a3.09,3.09,0,0,0,1.41-4.09l11.75-11.24Zm-4.33-14.26a3.06,3.06,0,0,0-4.59-.51l-9.15-5.89a3.07,3.07,0,0,0,.87-2.15c0-.12,0-.24,0-.35l5.28-1.06a3.1,3.1,0,1,0,3.61-3.7l3.89-8.86a3.06,3.06,0,0,0,3.57-.09l9.23,10.48Zm14.3-11.07-1.22-1.39,0-.07-.05.05-9.21-10.47a3.08,3.08,0,0,0-.63-4.79l8-9.86a2.35,2.35,0,0,0,.53.09,3.06,3.06,0,0,0,1.65-.36l9.17,7.38a3.31,3.31,0,0,0-.27,1.06,3.07,3.07,0,0,0,.67,2.11Z"/><path class="cls-3" d="M418.89,605.87a3.08,3.08,0,0,0-2.69-2.17v-7.28a3.1,3.1,0,0,0,2.84-3.08,3.14,3.14,0,0,0-.22-1.15l6.89-3.44a3.1,3.1,0,1,0,4.8-3.83l6.55-8-.32-.13c-5.34-2.27-8.59-3.61-10.57-4.4a3.34,3.34,0,0,0,.11-.78,3.05,3.05,0,0,0-.31-1.32c2.07-1.41,5.62-4,11.75-8.81l.51-.4-18.15-1.88c0-.12,0-.22,0-.34l16.7-4.2-9.81-6.4a3,3,0,0,0,.38-1.46,3.1,3.1,0,0,0-1.44-2.62l11.28-21.57-18.84,10.84a3.09,3.09,0,0,0-2.37-1.13,3.13,3.13,0,0,0-1.22.25l-3.85-11.72-7,14.46,0,.07,1.14,9.41a3.4,3.4,0,0,0-.38.12l-6.53-14.81,0-.09-19.34-8.37.69.79,1.91,13.06a3.07,3.07,0,0,0-2.54,2.78h-9.64l9.34,9.6a3.1,3.1,0,1,0,2.92-1l.56-5.24H382a3.09,3.09,0,0,0,2.86-2.5l6.3.73a3.09,3.09,0,0,0,2.81,2.79v15.55a3.1,3.1,0,0,0-2.84,3.26,3.5,3.5,0,0,0,.12.66l-10.76,4a3.1,3.1,0,1,0-2.63,4.42,3.11,3.11,0,0,0,2.93-3.27,3.76,3.76,0,0,0-.12-.67l10.76-4a3.1,3.1,0,1,0,3.06-4.41V542.66a3.08,3.08,0,0,0,2.08-1.06l6.39,4.65a3,3,0,0,0-.46,1.6,3.1,3.1,0,1,0,5.28-2.21l6.38-7.66a3,3,0,0,0,3.38.11l4.65,6.39a3.08,3.08,0,0,0,.24,4.87l-4.13,7.08a3.06,3.06,0,0,0-4.4,2.54h-7.28a3.1,3.1,0,1,0-3.2,3.34L401,570.66a2.91,2.91,0,0,0-.6-.06,3.1,3.1,0,1,0,2.38,5.07l5.29,3.71a3.06,3.06,0,0,0-.43,1.55,3.09,3.09,0,0,0,2.09,2.92l-2,7.79-6.34-1.12a2.66,2.66,0,0,0,0-.28,3.11,3.11,0,1,0-3.1,3.1,3.14,3.14,0,0,0,1-.17l3.78,8.82a3,3,0,0,0-1.6,2.24l-15.24-.85L400,615.29a3.13,3.13,0,0,0-.6,1.83,3.23,3.23,0,0,0,.1.76L384,623.23l9.73,7.69A3.09,3.09,0,0,0,396,635.7v11.43a3.09,3.09,0,1,0,2.79,4.85l7.08,4.13a3.09,3.09,0,0,0,4.89,3.6l7.87,7.21a3.1,3.1,0,0,0-.64,1.63H400.41a2.09,2.09,0,0,0,0-.35,3.1,3.1,0,1,0-6.08,1.22,3,3,0,0,0,.74,1.45l-9.39,10,.38.35,9.39-9.95a3.07,3.07,0,0,0,5-2.15H418c0,.12,0,.23,0,.35a3.1,3.1,0,0,0,3.65,2.43,3.06,3.06,0,0,0,1.85-1.17l13.43,8.5.27-.44-13.42-8.5a3.07,3.07,0,0,0-1.65-4.32l2.43-8.52.19,0a3.09,3.09,0,0,0-.17-6.1l.67-11.42a3.09,3.09,0,0,0,.11-6.18l-.32-12.44h.14a3.1,3.1,0,0,0,2.2-5.28l10.29-14.24Zm17.64-3.34-9.48,13.11a3.05,3.05,0,0,0-1.8-.59,3.11,3.11,0,0,0-1.89.65l-5.3-6.67a3.07,3.07,0,0,0,1-2.25,2.85,2.85,0,0,0,0-.41Zm-24.85,54.09a3.09,3.09,0,0,0-2.92-2.28l-.63-9.35a3.12,3.12,0,0,0,1.85-1l11.61,8.71a3.07,3.07,0,0,0-.43,2.15Zm-14-26.76,3.92-9.79a3,3,0,0,0,.9.15,2.45,2.45,0,0,0,.38,0L406.79,639a3.07,3.07,0,0,0-1.34.81l-6.6-5.4a3,3,0,0,0,.55-1.75A3.09,3.09,0,0,0,397.68,629.86Zm12.3-.45L408,638.87a2.33,2.33,0,0,0-.37,0,2.21,2.21,0,0,0-.37,0l-3.92-18.79a3.12,3.12,0,0,0,.9-.43l4.06,4.87a3.07,3.07,0,0,0,1.64,4.89ZM423.6,651.3a3.08,3.08,0,0,0-1.7,1l-11.61-8.71a3,3,0,0,0,.48-1.64,2.93,2.93,0,0,0-.08-.67l11.59-3.63a3.09,3.09,0,0,0,2.53,2.19l-.68,11.42A3.31,3.31,0,0,0,423.6,651.3Zm-1.42-14.17-11.64,3.63a3.11,3.11,0,0,0-2-1.79l1.95-9.47.28,0a3.07,3.07,0,0,0,2.1-.83l9.47,7a3.12,3.12,0,0,0-.2,1.06C422.14,636.89,422.17,637,422.18,637.13Zm-11.41-13.81a3.12,3.12,0,0,0-2.09.82l-4-4.81a3.15,3.15,0,0,0,.88-1.76l8.17.52.28.45.08-.42,8.1.51a2.62,2.62,0,0,0,.13.5l-8.91,5.69A3.06,3.06,0,0,0,410.77,623.32ZM413,606l-5.32-1c0-.1,0-.2,0-.3a3,3,0,0,0-.55-1.75l6.88-7.21a3.21,3.21,0,0,0,1.68.67v7.28A3.1,3.1,0,0,0,413,606Zm.67-10.59-6.84,7.17a3.08,3.08,0,0,0-1.08-.73l2.45-9.6,4.71.83a2.4,2.4,0,0,0,0,.28A3.06,3.06,0,0,0,413.63,595.39Zm-6.08,10.13,5.32,1c0,.1,0,.2,0,.3a3.09,3.09,0,0,0,2.28,3l-1.38,7.39-6.68-10.61A2.92,2.92,0,0,0,407.55,605.52Zm8.08,4.33a3,3,0,0,0,.31,0,3.06,3.06,0,0,0,1.72-.52l5.32,6.69a3.05,3.05,0,0,0-.83,2.06l-8-.5Zm-2.28-30.64,7.28-5.81a3.11,3.11,0,0,0,2.55,1.33,3.56,3.56,0,0,0,.73-.09l3.22,9.65a3.07,3.07,0,0,0-1.61,1.58l-11.76-4.15a3,3,0,0,0,.11-.79A3.09,3.09,0,0,0,413.35,579.21Zm-9.87-6.06a3,3,0,0,0-.52-1.24l12.15-10.22a3,3,0,0,0,3.43.2l3.15,7a3.06,3.06,0,0,0-1.61,2.66Zm32.74,4-6.11,7.44a3.06,3.06,0,0,0-1.76-.55,2.86,2.86,0,0,0-.73.09l-3.22-9.65a3.14,3.14,0,0,0,1.6-1.57C428.75,574,433,575.77,436.22,577.15Zm-10.5-7.29a3.06,3.06,0,0,0-3.56-1.15L419,561.58a3.13,3.13,0,0,0,1.06-1.85l16.87,1.75C433.41,564.21,428.63,567.84,425.72,569.86Zm-44.86-23h-.24a3.1,3.1,0,0,0-1.79.71l-8.49-8.72h8.4a3.09,3.09,0,0,0,2.67,2.81Zm.95-11.37L380,523.18l12.15,14.11a3,3,0,0,0-1,2.06l-6.24-.72a2.26,2.26,0,0,0,0-.26A3.09,3.09,0,0,0,381.81,535.46Zm15.06,5.72a3,3,0,0,0,.46-1.6,3.1,3.1,0,0,0-4.77-2.61l-12-14,17.08,7.4,6.49,14.72a3,3,0,0,0-.86.69Zm10.51,4.14a3,3,0,0,0-1.78-.57h-.11l-1.12-9.27,6.41-13.25,3.48,10.6a3.12,3.12,0,0,0-1.42,2.61,3,3,0,0,0,.93,2.2ZM418,537.78a3.05,3.05,0,0,0,.65-3.89L435.87,524l-10.46,20a3,3,0,0,0-1.2-.24,3.1,3.1,0,0,0-1.6.45Zm4.92,11.83a3.06,3.06,0,0,0,3.77-.89l8.82,5.75-15.53,3.91a3,3,0,0,0-1.19-1.69ZM404,562.28a3.08,3.08,0,0,0,2.65-2.8h7.29a3,3,0,0,0,.82,1.86l-12.09,10.17a3,3,0,0,0-1.1-.7Zm-.86,13a3,3,0,0,0,.44-1.55v0l16.59-1.56a3,3,0,0,0,.26.83L413,578.81a3.06,3.06,0,0,0-4.62.15Zm7.16,8.73a3,3,0,0,0,.51.06,3.11,3.11,0,0,0,2.83-1.84l11.76,4.16a2.88,2.88,0,0,0-.11.78,3.18,3.18,0,0,0,.22,1.15l-6.89,3.44a3.09,3.09,0,0,0-5.63.82l-4.66-.82Zm-10.44,9a3.11,3.11,0,0,0,1.53-1.94l6.3,1.11-2.43,9.54a3.5,3.5,0,0,0-.65-.07,3.2,3.2,0,0,0-1,.17Zm1.65,11.77a3.1,3.1,0,0,0,5.24,2.21l6.68,10.6-7.79-.49a3.1,3.1,0,0,0-5.26-2.16L387.76,604ZM385,623.41l14.63-5a3.09,3.09,0,0,0,1.45,1.51l-3.92,9.79a3.39,3.39,0,0,0-.9-.15,3.09,3.09,0,0,0-2.26,1Zm14,28.12a3.07,3.07,0,0,0-2.53-4.4V635.7a3,3,0,0,0,2-.92l6.6,5.39a3.06,3.06,0,0,0-.55,1.76,3.1,3.1,0,0,0,3.05,3.1l.62,9.35-.15,0a3.06,3.06,0,0,0-1.92,1.26Zm21.41,14.24a3.09,3.09,0,0,0-1.49.77l-7.86-7.21a3.06,3.06,0,0,0,.62-2.21l9.52-1.78a3.11,3.11,0,0,0,2.79,2.09l-2.37,8.34A3.08,3.08,0,0,0,420.5,665.77Zm4.41-32.08a3.09,3.09,0,0,0-2.34,1.53l-9.35-6.91a3.09,3.09,0,0,0,.65-1.89,3.12,3.12,0,0,0-.22-1.14l8.88-5.67a3.06,3.06,0,0,0,2.06,1.57Z"/></g><path class="cls-4" d="M504.59,611c.25-3.64.39-7.3.39-11,0-3.34-.14-6.64-.34-9.92a8.12,8.12,0,0,0-1.82-15.89c-.82-4.92-1.9-9.76-3.16-14.52.11-.06.23-.09.34-.16a6.95,6.95,0,0,0-4.42-12.9A154.71,154.71,0,0,0,488.9,531a8.16,8.16,0,0,0-5.7-14,8,8,0,0,0-2,.27,156.44,156.44,0,0,0-9.1-13,6.94,6.94,0,0,0-8.28-11,5.06,5.06,0,0,0-.65.46,156,156,0,0,0-13.91-13.3,8.14,8.14,0,0,0-12.89-9.83,155.71,155.71,0,0,0-28.89-15.51,7,7,0,0,0-.91-3.78,7,7,0,0,0-9.5-2.54,6.84,6.84,0,0,0-2.06,1.82,155.9,155.9,0,0,0-37.49-6.83,8.12,8.12,0,0,0-15.48-.12,155.81,155.81,0,0,0-36.55,5.86,6.38,6.38,0,0,0-.43-1,6.94,6.94,0,0,0-12.7,5.35,156.48,156.48,0,0,0-31.93,16.72,8.14,8.14,0,0,0-12.89,9.83c-3.4,2.87-6.65,5.89-9.79,9a6.94,6.94,0,0,0-11.48,7.73,6.85,6.85,0,0,0,2.26,2.34,155.76,155.76,0,0,0-11.5,15.5,7.87,7.87,0,0,0-2-.65A8.15,8.15,0,0,0,209,529.05c-2.29,4.47-4.34,9.08-6.19,13.78a6.93,6.93,0,1,0-4.51,13.1,154,154,0,0,0-4.66,21,8.12,8.12,0,0,0-1.53,15.79c-.11,2.41-.18,4.82-.18,7.25,0,5.08.27,10.09.74,15a6.92,6.92,0,0,0,1.89,13.5A155.33,155.33,0,0,0,198.78,646a8.14,8.14,0,0,0,2.58,15.14,8.28,8.28,0,0,0,2.94,0,154.68,154.68,0,0,0,10.78,20.82,6.92,6.92,0,0,0,7.71,11.33,158.82,158.82,0,0,0,16.34,18.7A8.14,8.14,0,0,0,251,722.41,157.14,157.14,0,0,0,284.91,743a8,8,0,0,0-.34,1.21,8.16,8.16,0,0,0,15.53,4.63,155.42,155.42,0,0,0,42,7.51,8.12,8.12,0,0,0,15.48-.12,155.49,155.49,0,0,0,38.6-7.18,8.14,8.14,0,1,0,14.65-5.53,156.76,156.76,0,0,0,36.5-22.28,8.14,8.14,0,0,0,12.07-10.93,158.26,158.26,0,0,0,14.43-16.7,6.77,6.77,0,0,0,1.87.29,6.92,6.92,0,0,0,5.54-11.11,156.57,156.57,0,0,0,11.35-21.72,8.62,8.62,0,0,0,1.53.15,8.15,8.15,0,0,0,4-15.26,156,156,0,0,0,5-21.69A6.92,6.92,0,0,0,504.59,611Zm-21.39-77.7a8.17,8.17,0,0,0,3.43-.77,152.75,152.75,0,0,1,6.38,15,6.93,6.93,0,0,0,4,12.9c1.23,4.61,2.27,9.29,3.07,14.06a8.15,8.15,0,0,0-5.45,4.93l-14.51-2.9,2.56-11.75a3,3,0,0,0,1.38-.38,2.92,2.92,0,1,0-2.92-5.05l-.2.14-8.3-7.25L481.19,533A7.86,7.86,0,0,0,483.2,533.29Zm3,121.78L470,662l-2.56-10.06a2.92,2.92,0,0,0,1-3.94,3.2,3.2,0,0,0-.42-.55l6.57-10.25,12.67,11.42a8.13,8.13,0,0,0-1.35,4.49A8,8,0,0,0,486.2,655.07Zm-41.36,20.62,14.43-6.16L455,684.07a3,3,0,0,0-1.6.39,2.59,2.59,0,0,0-.6.48l-8.06-4.84a8,8,0,0,0,.4-2.5A8.06,8.06,0,0,0,444.84,675.69Zm-1.06-2.5a8.34,8.34,0,0,0-2.1-2.21L459,636.36a7.87,7.87,0,0,0,2.38.4,8.11,8.11,0,0,0,1.78-.22l1.7,10.18a3.3,3.3,0,0,0-.43.19,2.92,2.92,0,0,0-1.06,4,2.82,2.82,0,0,0,1.08,1.06l-4.22,14.18Zm-8.22-63.8v60.18a8.12,8.12,0,0,0-6.72,7.09l-35.69,1.88a8.16,8.16,0,0,0-6.74-6.27l-1.1-62.75a8.16,8.16,0,1,0-5.92-2.41L353,648.33a8.09,8.09,0,0,0-6.66.13l-28.92-41.31a8.29,8.29,0,0,0,1.54-2,8.17,8.17,0,1,0-11,3.51,8.05,8.05,0,0,0,2.38.76v62.91a7.94,7.94,0,0,0-6.65,6.67H268a8.16,8.16,0,0,0-4.28-5.9,8,8,0,0,0-2.39-.76V609.39a8.12,8.12,0,0,0,.28-16l2.17-62.9a8.16,8.16,0,0,0,6.17-4.34,7.71,7.71,0,0,0,.69-2l38.44,1.9a8.09,8.09,0,0,0,11.59,6.41L344,565.62a8.19,8.19,0,1,0,11.1-.34L376.71,530a8.26,8.26,0,0,0,3,.59,8.15,8.15,0,0,0,8-6.8h41.09a8.27,8.27,0,0,0,.44,1.58,8.13,8.13,0,0,0,6.26,5.08v62.9a8.14,8.14,0,0,0,0,16.06ZM417.17,723.58l-11.56,4.82V718.3a8.1,8.1,0,0,0,4.06-2l7.69,5.68A2.87,2.87,0,0,0,417.17,723.58Zm-6.55-8.27a8.28,8.28,0,0,0,1.44-2.8l10.76,1.19-2.44,6.55a2.85,2.85,0,0,0-1.79.36,3.17,3.17,0,0,0-.4.29Zm13.63-1.45,20.88,2.32a8,8,0,0,0,.16,1.11l-22.62,4.62a1.6,1.6,0,0,0-.1-.23,2.87,2.87,0,0,0-.89-.94Zm-.45-2.79-11.43-1.27a8,8,0,0,0-1.48-4.25l21.31-21.31a8.32,8.32,0,0,0,1.33.76Zm5.42-30.79-19.34,7.79a2.9,2.9,0,0,0-3.81-.83,3.08,3.08,0,0,0-.73.61l-12.14-6.29c0-.11.05-.2.06-.3l35.7-1.88A8.52,8.52,0,0,0,429.22,680.28Zm-59.49,44.18a2.93,2.93,0,0,0-4-1.07,2.65,2.65,0,0,0-.58.47l-8-4.85a8.13,8.13,0,0,0,.69-2.74l38.5-3.85a8,8,0,0,0,.73,1.79l-20.42,16.34L370,726.72A2.91,2.91,0,0,0,369.73,724.46ZM342.31,659l-24.62,15.82a8.18,8.18,0,0,0-2.25-1.76l10.22-23a2.93,2.93,0,0,0,2-.33,3.22,3.22,0,0,0,.9-.82l13.25,5.37A8.32,8.32,0,0,0,342.31,659ZM342,713.56l-14.5-1.45-11.52-24.86a6.58,6.58,0,0,0,.7-.47L343,711.24A8.19,8.19,0,0,0,342,713.56Zm.23,5-7.57,4a2.89,2.89,0,0,0-2.73-.9L328.77,715l12.91,1.29A7.75,7.75,0,0,0,342.18,718.56ZM269.61,698a2.92,2.92,0,0,0-4-1.07,2.81,2.81,0,0,0-.67.56l-8.76-4.81,1.89-4.47a8.18,8.18,0,0,0,7.2-1.76l23.07,19.62c-.09.14-.19.26-.27.41a8.06,8.06,0,0,0-.88,3.26l-14.11,1.53-4.23-9.52A2.9,2.9,0,0,0,269.61,698Zm-27.81-15.3a2.92,2.92,0,0,0-2.42-1.45l-2.1-10,14.79,6.89a8.14,8.14,0,0,0,3.51,9l-1.78,4.23L242.09,685A3,3,0,0,0,241.8,682.74Zm-32.21-34.09,12-12.27,8.53,12.51a2.9,2.9,0,0,0,2.06,4.85L235,667.2l-24.56-11.45a7.2,7.2,0,0,0,.35-1.25A8.11,8.11,0,0,0,209.59,648.65Zm4.4-29.87a2.92,2.92,0,0,0-.79-.88l3.58-8.52,9.27,9.11a8.7,8.7,0,0,0-.59.9,8.14,8.14,0,0,0,.67,8.52l-5.07,5.17-7.44-10.9A2.92,2.92,0,0,0,214,618.78Zm2.78-57a2.92,2.92,0,0,0-4-1.07l-.05,0-7-7a7,7,0,0,0,1.53-5.2l14-3.12,12.17,24.87a8.28,8.28,0,0,0-2,2L217,564A2.89,2.89,0,0,0,216.77,561.77Zm52.83-43.63L290,500.3l15.89,5.83c0,.14,0,.27,0,.41L270,518.83A7.62,7.62,0,0,0,269.6,518.14Zm41.88-13.05,15.57-11.54,14.73,5.52a7.91,7.91,0,0,0-.16,1.55c0,.14,0,.28,0,.41l-30.11,4.28C311.51,505.24,311.51,505.16,311.48,505.09Zm46.32-6,14.56-5.47,14.39,10.16a0,0,0,0,0,0,0L358,500.68v-.06A7.91,7.91,0,0,0,357.8,499.07ZM409,509a2.92,2.92,0,0,0-3.62-.57,2.88,2.88,0,0,0-1.16,1.24l-11.87-4.6c0-.07,0-.14,0-.21l17.3-4.49,4.55,4Zm-37.25,14.94-14.86,5.36a8.17,8.17,0,0,0-6.28-4.11l0-4a2.88,2.88,0,0,0,1.4-2.75l13.61-4.65,6.82,5a8.12,8.12,0,0,0-.88,3.61A7.63,7.63,0,0,0,371.73,523.93Zm-47.38-2.53,9-6.75,12.87,3.92a2.87,2.87,0,0,0,.38,1.62,2.92,2.92,0,0,0,2.63,1.44l0,3.54a8.18,8.18,0,0,0-6.89,4.86l-17.09-4.26c0-.22.07-.42.07-.64A8.09,8.09,0,0,0,324.35,521.4Zm31.15-14.95,8.75,6.37-12.68,4.34a2.76,2.76,0,0,0-.91-.89l.07-7.54A8.12,8.12,0,0,0,355.5,506.45Zm-6.23,9.37a2.79,2.79,0,0,0-1.6.38,2.88,2.88,0,0,0-1,1l-11.9-3.62,9.45-7.09a8.19,8.19,0,0,0,5.15,2.24Zm-6.71-11.48-11.06,8.3-19.64-6,30-4.25A8.92,8.92,0,0,0,342.56,504.34Zm14.52-.1a8.48,8.48,0,0,0,.73-2.18l28.75,3.09v.05l-19.16,6.55Zm-50.68,3.6a2.9,2.9,0,0,0,3.86.9,3.06,3.06,0,0,0,.91-.84l19,5.77-7.4,5.55a8.07,8.07,0,0,0-5.61-2.26,8.16,8.16,0,0,0-8,6.41l-38.37-1.92a8.27,8.27,0,0,0-.29-1.33Zm18.2,20.56,17.09,4.27c0,.21-.07.41-.07.62a8.18,8.18,0,0,0,7.44,8.14l-.05,5.65a3.16,3.16,0,0,0-.66.27,2.92,2.92,0,0,0,.61,5.32l-.09,10.63a8.23,8.23,0,0,0-2.6.77l-23.4-33.15A8.15,8.15,0,0,0,324.6,528.4Zm25.75,24.33a2.83,2.83,0,0,0,.91-.32,2.92,2.92,0,0,0,1.07-4A2.85,2.85,0,0,0,350.4,547l.05-5.61a8.17,8.17,0,0,0,7.51-8.14,7.77,7.77,0,0,0-.15-1.46l14.86-5.41a8.42,8.42,0,0,0,1.73,2.12l-21.58,35.3a8.09,8.09,0,0,0-2.56-.57ZM374,516.57l-5.26-3.83,18.31-6.25a2.91,2.91,0,0,0,3.83.86,2.76,2.76,0,0,0,1-1l12,4.67a3.13,3.13,0,0,0,.18.94L387,518.65A8.12,8.12,0,0,0,374,516.57Zm30.9-3.41a2.92,2.92,0,0,0,3.35.31,3.26,3.26,0,0,0,.62-.49L429,520.76c0,.1-.06.19-.08.28H387.77a6.85,6.85,0,0,0-.29-1.1Zm4.68-1.4a2.78,2.78,0,0,0,0-1.54l5.62-5L430,518.14a8.88,8.88,0,0,0-.62,1.28Zm22.09,4.41-14.46-12.68,6.78-6a2.88,2.88,0,0,0,2,.47l7,17.31A7.77,7.77,0,0,0,431.7,516.17Zm-15.5-13.59-3.44-3,9.67-2.51Zm6.95-9.05-21.89-7.31a8.18,8.18,0,0,0,.26-1.86L416.63,482l6.9,11.11A2.45,2.45,0,0,0,423.15,493.53Zm-.45,1.32a2.66,2.66,0,0,0,0,.69l-11.24,2.91-11.23-9.84a7.26,7.26,0,0,0,.56-1.07Zm-14.3,4.4L392,503.5l-.06-.14a2.93,2.93,0,0,0-4-1.07,3.72,3.72,0,0,0-.45.33L373.94,493l12.37-4.65a8.08,8.08,0,0,0,12.18,2.23Zm-22.89-17.17-32.81-6.47,19.38-8.13L386.42,480A8.45,8.45,0,0,0,385.51,482.08Zm-.26,1.36a7.91,7.91,0,0,0-.06.85,8.85,8.85,0,0,0,.15,1.55l-14.08,5.28-19.7-13.92a3.24,3.24,0,0,0,.21-.35Zm-15.56,8.27-12.87,4.82a8.1,8.1,0,0,0-14.06,0l-13.1-4.91,18.11-13.42a2.91,2.91,0,0,0,2.76,0ZM328.11,491l-13.87-5.2a8,8,0,0,0,.16-1.55,6.42,6.42,0,0,0-.07-.89l32.17-6.54c0,.07.06.15.1.22a1.77,1.77,0,0,0,.12.17Zm-14-9a8.64,8.64,0,0,0-.9-2l15-13.1,17.76,8.64Zm-.81,6.35L325.5,493l-14.85,11a2.92,2.92,0,0,0-3.31-.29,3,3,0,0,0-1.07,1.1l-15.08-5.53,9.9-8.66a8.08,8.08,0,0,0,12.17-2.21Zm-25,9.8L276.93,494a2.74,2.74,0,0,0,0-.64l21.71-6.18a8,8,0,0,0,.65,1.35Zm-11.83-6.1a3.16,3.16,0,0,0-.37-.45l5.88-9.8,16.11,2.55a8.09,8.09,0,0,0,.18,1.49Zm0,3.24,10.64,3.91-19.26,16.85a8,8,0,0,0-1.41-.93c-.13-.07-.26-.11-.39-.17l7-18.57a2.88,2.88,0,0,0,3.44-1.09Zm-11.74,19.2a8.8,8.8,0,0,0-2.1-.25l-3.5-19.88h12.11a2.89,2.89,0,0,0,.29.77,2.83,2.83,0,0,0,.32.45ZM261,530.37l-2.17,62.91a8.19,8.19,0,0,0-3.23,1.18L244.53,582a9.1,9.1,0,0,0,.89-1.36,8.15,8.15,0,0,0-2.73-10.5l17.92-39.81Zm-7.81,100.25a2.91,2.91,0,0,0-2.74-2.16l-3.3-15.15,7.35-5.87a8.29,8.29,0,0,0,1.66,1.18,8.11,8.11,0,0,0,2.39.76V670l-7-36A2.91,2.91,0,0,0,253.22,630.62Zm-28.11-38.26c0-.07-.09-.12-.13-.18l8-9a8.17,8.17,0,0,0,1.39.92,8,8,0,0,0,1.51.6L232.31,615a8.18,8.18,0,0,0-4.36,1.53l-10-9.86,4.21-10a2.91,2.91,0,0,0,3-4.33ZM238.58,585c.2,0,.41,0,.61-.07l2.91,11.89a2.9,2.9,0,0,0,1.26,5.48l2,9-7.19,5.75a8,8,0,0,0-1.67-1.18,8.53,8.53,0,0,0-1.46-.58Zm6.14,17a2.91,2.91,0,0,0-1.27-5.53l-2.91-11.84a8.51,8.51,0,0,0,2-.89l11.07,12.5a7.85,7.85,0,0,0-.89,1.37,8.15,8.15,0,0,0,.12,7.72l-6.27,5Zm-4.5-33a8.31,8.31,0,0,0-1.64-.23V543.8a3.08,3.08,0,0,0,.76-.3,2.91,2.91,0,0,0,1.18-3.73l15.68-12.44a8.22,8.22,0,0,0,1.94,1.82Zm-.55-30.29a3,3,0,0,0-1.43-.58l-1.68-14.32h18.08a8.08,8.08,0,0,0,.81,2.38Zm-2.48,30.11a7.56,7.56,0,0,0-1.34.26L224,544.78l11.3-2.51c0,.05,0,.11.07.16a2.9,2.9,0,0,0,1.84,1.37ZM232,582.22l-8.07,9a2.91,2.91,0,0,0-3.08,4.92l-4,9.48L201,590a8.08,8.08,0,0,0,1.64-3.61,8.41,8.41,0,0,0,.13-1.65l27.75-5.13A8.11,8.11,0,0,0,232,582.22Zm1.55,71.23.21-.09a2.92,2.92,0,0,0-2.48-5.26l-8.68-12.73,5.45-5.56a7,7,0,0,0,.9.59,8.1,8.1,0,0,0,6,.58l20.33,42.69a8,8,0,0,0-2,2l-16.66-7.77Zm3.82-23.65a8.08,8.08,0,0,0,2.46-10.62l6.12-4.9,3.14,14.46a2.91,2.91,0,0,0,1.14,5.52l7.33,37.93ZM267,684.46c.08-.14.18-.25.25-.39a6.33,6.33,0,0,0,.35-.87l20.26,6.38a2.91,2.91,0,1,0,5.77-.37l10.94-5.05a7.88,7.88,0,0,0,2.11,2.57L298,702.58a8.15,8.15,0,0,0-7.91,1.45Zm1-2.6c0-.06,0-.12,0-.18h35.69a8.63,8.63,0,0,0,.32,1.21L293,688a2.89,2.89,0,0,0-4.75.3ZM309,688a8.12,8.12,0,0,0,5.65-.14L325.84,712l-22.38-2.24a8.15,8.15,0,0,0-3.07-5.85Zm46.24-38.21,26.35-41.12a8,8,0,0,0,1,.38l0,1.2-10.27,34.06a3,3,0,0,0-1.73.37,2.9,2.9,0,0,0-1.41,3l-11.85,5.09A8.3,8.3,0,0,0,355.27,649.8ZM354,662.74a8.83,8.83,0,0,0,1.57-1.24l22.2,15.37a8,8,0,0,0,.18,7.3l-8.87,6.19a2.91,2.91,0,0,0-2.48-.66Zm11.34,27.54a2.79,2.79,0,0,0-.61.68l-15-5.21V664a8.31,8.31,0,0,0,3-.58Zm-8.21-31a8.08,8.08,0,0,0,.58-5.14l12-5.16a2.88,2.88,0,0,0,2.5,1.15l8.64,23.3a7.72,7.72,0,0,0-1.53,1.2Zm26.51,13a8.19,8.19,0,0,0-1.55.48l-8.56-23.07a2.91,2.91,0,0,0,1-4,3,3,0,0,0-.94-1l9-30Zm-41.14-20.23a7.47,7.47,0,0,0-.39.87L329,647.63a2.88,2.88,0,0,0-3.05-3.31l-11.11-35.5c.09,0,.19-.06.28-.11L344.08,650A7.83,7.83,0,0,0,342.54,652.07ZM313,672.3V609.39c.17,0,.34-.09.52-.13l11.1,35.47a2.9,2.9,0,0,0-1,3.95,2.87,2.87,0,0,0,.74.84l-10.24,23A11,11,0,0,0,313,672.3Zm36.75,14.93,14.51,5a2.92,2.92,0,0,0,4.36,2.8,2.82,2.82,0,0,0,.78-.67l27.17,13.17a8.1,8.1,0,0,0-.48,2.15l-38.49,3.86a8.14,8.14,0,0,0-7.85-6Zm49,29.11c.21.19.43.34.65.51l-11.81,17.47a2.89,2.89,0,0,0-2.46.2,2.7,2.7,0,0,0-.64.52l-5.31-3Zm-1.66-10-27.12-13.15a3,3,0,0,0-.13-1.65l8.83-6.17a8.15,8.15,0,0,0,9.61,2.52l10.43,16.38A8.16,8.16,0,0,0,397.17,706.3Zm37.09-191.6-7-17.26a2.82,2.82,0,0,0,1-1.38l10.21,1-2,17.2A8.42,8.42,0,0,0,434.26,514.7Zm45.83,48.59a2.87,2.87,0,0,0,1.25,1.17l-2.56,11.76-9.21-1.84c0-.09,0-.16,0-.25a8.16,8.16,0,0,0-3.65-6.8l6.13-13.8,8,7A2.93,2.93,0,0,0,480.09,563.29Zm-16.65,3a8.1,8.1,0,0,0-1.85-.27l-.46-20.81a2.77,2.77,0,0,0,.7-.28l.2-.14,7.9,6.9Zm2.17,14.86,7.84,10.83a2.9,2.9,0,0,0-.69,1.71l-10,1.87V582.17A8.25,8.25,0,0,0,465.61,581.11Zm-2.83,24.15,10.84,7.44-7.91,9a8,8,0,0,0-2.93-1.11ZM468.84,632l4.73,4.26-6.7,10.46a2.92,2.92,0,0,0-.6-.14l-1.74-10.43A8.24,8.24,0,0,0,468.84,632Zm-.19-7.08a8.24,8.24,0,0,0-.9-1.41l8.13-9.22,6.89,4.72a2.84,2.84,0,0,0-.25.86Zm5.9-13.24-11.77-8.08v-6.63L473,595c0,.08.07.17.12.26a2.91,2.91,0,0,0,2.83,1.43l3.42,9.46Zm1-20.74a2.89,2.89,0,0,0-1,.21l-7.85-10.82A8.15,8.15,0,0,0,469,577l9.17,1.84Zm-5.07-40.59L463,543.7a2.89,2.89,0,0,0-1.45-4l2.31-14.34,11.31.67a8.16,8.16,0,0,0,3.56,5.91Zm-10.39-10.85a2.92,2.92,0,0,0-1.22.37c-.1.06-.19.14-.29.21L443.23,527.5a8,8,0,0,0,1.65-3.26l17.54,1Zm-2.39,1.65a2.89,2.89,0,0,0,2,4.08l.46,20.88c-.33.06-.66.14-1,.23l-17.63-37.23c.24-.17.45-.38.67-.57Zm-1.68,55.67a2.06,2.06,0,0,0-.12-.26,2.92,2.92,0,1,0-1.06,4,3.21,3.21,0,0,0,.48-.34l4.7,3.22v17L443.8,605.73a8,8,0,0,0-.51-9.42L457.06,581a8.22,8.22,0,0,0,3,1.15V596Zm4,.66v4.26l-3.92-2.7a3.15,3.15,0,0,0,.19-.86Zm-3.31-30a8.14,8.14,0,0,0-3.5,6.68,8.06,8.06,0,0,0,1.8,5l-13.77,15.3a8,8,0,0,0-3-1.15V530.46c.28-.05.56-.15.84-.23Zm-18.47,41.94a8.07,8.07,0,0,0,3.68-1.65l15.34,13.83a8.11,8.11,0,0,0-.69,13.59l-17.33,34.66a6.65,6.65,0,0,0-1-.25Zm27.52,43h.33l2.6,10.19-6.81,2.91Zm3.75-23.4c0-.12,0-.24,0-.36a8.07,8.07,0,0,0-.4-2.42l13.49-4.91a2.44,2.44,0,0,0,.19.44h0l-7.82,12.21Zm7.26-15.74,3.63-4.12,3.18,8.79Zm3.63-8.23-3.16-8.75a2.91,2.91,0,0,0-.33-5l2.62-12.05,14.55,2.91c0,.08,0,.16,0,.24a8.05,8.05,0,0,0,1.85,5.11Zm-10.61-99.26c3.15,4,6.12,8.24,8.86,12.6a8.17,8.17,0,0,0-3.43,5l-11-.64,2.66-16.46A6.92,6.92,0,0,0,469.83,505.72Zm-27-21.48a8.15,8.15,0,0,0,4.68-1.81,155.66,155.66,0,0,1,13.88,13.3,6.71,6.71,0,0,0-.83,2.15L441.42,496Zm17.59,15a6.87,6.87,0,0,0,5.14,6.72l-2.68,16.59L445,521.52a8.41,8.41,0,0,0-.47-2.06,8.12,8.12,0,0,0-5.33-4.86l2.05-17.25Zm-20.29-15.33-1.4,11.77-10.22-1a2.74,2.74,0,0,0-.36-1.05,2.91,2.91,0,0,0-3.43-1.32l-6.58-10.6,16.64-2.66A8.15,8.15,0,0,0,440.11,483.93Zm-33.26-26.2a153.44,153.44,0,0,1,28,15.11,8.13,8.13,0,0,0-.69,3.28c0,.09,0,.17,0,.26l-17.65,2.83-11.77-19A6.78,6.78,0,0,0,406.85,457.73Zm-12.29.51a6.93,6.93,0,0,0,9.06,2.74l11.46,18.47-14,2.25A8.08,8.08,0,0,0,388.18,478l-13.34-11.69,19.64-8.25A1.3,1.3,0,0,0,394.56,458.24Zm-36.63-11.75A153,153,0,0,1,393.85,453a6.94,6.94,0,0,0,.09,3.75l-20.26,8.51-16.95-14.86A8.17,8.17,0,0,0,357.93,446.49Zm-13.28,6a8,8,0,0,0,10.28,0l16,14-19.11,8c-.05-.1-.09-.22-.15-.32a2.91,2.91,0,0,0-4-1.07,2.83,2.83,0,0,0-1.15,1.23l-17.24-8.4ZM306,452.16a153.7,153.7,0,0,1,35.65-5.82,8.16,8.16,0,0,0,1.21,4.09l-16.22,14.2-21.07-10.26A6.94,6.94,0,0,0,306,452.16Zm-9.88,6.1a6.85,6.85,0,0,0,8.84-2.64l20.54,10L311.37,478a8.09,8.09,0,0,0-12.85,3.71l-15-2.37Zm-2.47-2a6.94,6.94,0,0,0,1.27,1.27L282,479.08,262.66,476a8.25,8.25,0,0,0-.69-3.19A153.38,153.38,0,0,1,293.64,456.28Zm-31.43,22.43,18.27,2.89-5.59,9.32a2.89,2.89,0,0,0-3.68,2.08H258.86l-1.63-9.22A8.14,8.14,0,0,0,262.21,478.71Zm-12.83,3.72a8.09,8.09,0,0,0,5.12,1.86h.06l1.53,8.72H239.22a6.61,6.61,0,0,0-.18-1Q244,487,249.38,482.43ZM235.8,499.72a6.93,6.93,0,0,0,3.42-5.33h17.12l3.59,20.34a7.89,7.89,0,0,0-5.28,6.31H236.24l-2.43-20.59A7.14,7.14,0,0,0,235.8,499.72Zm-4.55.82a7.8,7.8,0,0,0,1.18.08L234.84,521H221.68a8.11,8.11,0,0,0-2.36-4.52A155.39,155.39,0,0,1,231.25,500.54Zm-9.55,23.27s0,0,0,0h13.45l1.7,14.48a3.49,3.49,0,0,0-.44.2,2.94,2.94,0,0,0-1.45,2.46l-11.62,2.58L216.72,530A8.11,8.11,0,0,0,221.7,523.81Zm-10.29,6.4a8.06,8.06,0,0,0,.84.24,8.57,8.57,0,0,0,1.74.11l6.63,13.54-13.68,3a7.49,7.49,0,0,0-.58-1.3,7,7,0,0,0-1.26-1.54A153.5,153.5,0,0,1,211.41,530.21Zm-10.41,26a7.11,7.11,0,0,0,2.81-.89,7.48,7.48,0,0,0,.91-.65l7,7a2.91,2.91,0,0,0,3.94,4,2.93,2.93,0,0,0,.66-.54l14.4,8.23A8.21,8.21,0,0,0,230,577l-27.83,5.14a8.11,8.11,0,0,0-5.88-5A151,151,0,0,1,201,556.23Zm3.18,88.82a7.9,7.9,0,0,0-2.83,0,154.29,154.29,0,0,1-4.16-17,6.91,6.91,0,0,0-1.86-13.39c-.47-4.85-.73-9.76-.73-14.73,0-2.29.07-4.55.17-6.81a8.08,8.08,0,0,0,4.22-1.31l16.74,16.47-3.81,9a2.91,2.91,0,1,0,.56,5.59l7.59,11.13-12.33,12.57A8,8,0,0,0,204.18,645.05Zm36.61,64.71A156.17,156.17,0,0,1,225,691.61a6.88,6.88,0,0,0,1.8-4.63,7,7,0,0,0-7-7,7.05,7.05,0,0,0-2.4.45,152.45,152.45,0,0,1-10.55-20.35,8.39,8.39,0,0,0,2.29-2l26.57,12.39L238,681.58l-.21.1a2.92,2.92,0,0,0,2.92,5.05,3.08,3.08,0,0,0,.68-.56l11.84,6.52L247,707.61A8.08,8.08,0,0,0,240.79,709.76Zm8.85-1.49,6-14.26,8.61,4.73a2.92,2.92,0,0,0,3.33,3.62l4.05,9.1-17.52,1.9A8.16,8.16,0,0,0,249.64,708.27Zm42.23,29.29a8.15,8.15,0,0,0-5.65,3.08,154.12,154.12,0,0,1-33.28-20.17,8.08,8.08,0,0,0,1.44-3.35,7.45,7.45,0,0,0,.07-1.06l18.35-2,3.63,8.15a2.91,2.91,0,0,0,3.24,4.83,3,3,0,0,0,1-.92l11.8,4.24Zm.67-8.61-11.44-4.12a2.89,2.89,0,0,0-3.4-3.16l-3.45-7.75,13.25-1.43a8.13,8.13,0,0,0,4.09,5,9.22,9.22,0,0,0,1.77.65Zm49.1,24.71a152.7,152.7,0,0,1-40.92-7.44,8.11,8.11,0,0,0-6.13-8.44l.49-6.44,15,5.4a2.83,2.83,0,0,0,.36,1.76,2.92,2.92,0,0,0,4,1.07,3,3,0,0,0,.74-.63l26.6,13.53A7.74,7.74,0,0,0,341.64,753.66Zm.5-2.56L315.8,737.71a2.91,2.91,0,0,0-5.25-2.28l-15.36-5.53.89-11.51a8.15,8.15,0,0,0,4.68-2l41.92,33.54A8.24,8.24,0,0,0,342.14,751.1Zm4.93-4.94a8,8,0,0,0-2.69,1.6l-41.92-33.54c0-.07.1-.13.14-.2a8.22,8.22,0,0,0,.61-1.6l24,2.38,3.45,7.46a2.91,2.91,0,1,0,4.64,1.56l7.52-4a8.15,8.15,0,0,0,4.29,3.56Zm0-38.11a7.78,7.78,0,0,0-2.23,1.21l-26.37-24.49a6.49,6.49,0,0,0,.46-.7,7.93,7.93,0,0,0,.76-2.26l12.7.25a2.8,2.8,0,0,0,.3.82,2.92,2.92,0,0,0,4,1.07,3,3,0,0,0,1-1l9.41,3.28Zm0-23.24-8.95-3.12a3,3,0,0,0-.37-1.73,2.93,2.93,0,0,0-4-1.07,2.89,2.89,0,0,0-1.36,1.81l-12.58-.27a8.32,8.32,0,0,0-.67-3.3l24.62-15.83a8.26,8.26,0,0,0,2.27,1.77,10,10,0,0,0,1,.41Zm8.14,63a8.12,8.12,0,0,0-5.42-2.1V723.88a8.1,8.1,0,0,0,6.75-3.65l7.89,4.81a2.89,2.89,0,0,0,.25,2.34,2.92,2.92,0,0,0,4,1.07,3.07,3.07,0,0,0,.65-.53l6.23,3.57Zm2.23,3.35a7.41,7.41,0,0,0-.54-1.22l21.19-16.95,5.78,3.3a3,3,0,0,0,0,1.46Zm45.44-10.76a8.15,8.15,0,0,0-6.44,5.77,153,153,0,0,1-38.51,7.39c0-.35-.06-.7-.11-1l26.64-13.54a2.91,2.91,0,0,0,5.09-2.34L402.88,731Zm0-10.81L389,735.32a2,2,0,0,0-.18-.23l11.83-17.51a8,8,0,0,0,2.22.72Zm-1.81-26.8-10.43-16.38a8.06,8.06,0,0,0,2.22-3.41l11.84,6.13a2.91,2.91,0,1,0,5.71.27l19.38-7.8c.15.26.31.52.48.77L409,703.62a8.14,8.14,0,0,0-7.9-.88Zm7.6,38.8a8.15,8.15,0,0,0-3.06-1.19V729.9l12.09-5a2.9,2.9,0,0,0,5.25-1.59l22.71-4.63c0,.12.08.25.13.37A154.49,154.49,0,0,1,408.67,741.54Zm44.47-34a8.11,8.11,0,0,0-7.7,5.92l-20.21-2.25,9.61-25.76a8,8,0,0,0,2.08.29,8.14,8.14,0,0,0,7.22-4.36l7.89,4.73a2.89,2.89,0,0,0,2,3.65Zm4.11,1.07a8.58,8.58,0,0,0-2.72-1l.84-17.83a2.78,2.78,0,0,0,.9-.32,3,3,0,0,0,1.37-1.83h11.14a6.92,6.92,0,0,0,2.56,4.71A155.6,155.6,0,0,1,457.25,708.63Zm11.53-22.34H457.63a2.93,2.93,0,0,0-.3-.77,2.83,2.83,0,0,0-1.05-1l4.63-15.65,8.5-3.63,3.88,15.27A7,7,0,0,0,468.78,686.29ZM479.15,681a6.37,6.37,0,0,0-4.51-.87l-3.94-15.48,16.57-7.08a8.29,8.29,0,0,0,2.74,2.56A154,154,0,0,1,479.15,681Zm22.74-70.48a6.93,6.93,0,0,0-1.55,13.64,151.23,151.23,0,0,1-4.83,20.91,8.23,8.23,0,0,0-1.42-.15,8.08,8.08,0,0,0-4.93,1.7L476.1,634.85l7.78-12.14a2.91,2.91,0,1,0,1-5.34l-3.42-9.47L498,589.23a8.12,8.12,0,0,0,4,1.21c.19,3.16.32,6.35.32,9.56C502.26,603.54,502.12,607,501.89,610.52Z"/><path d="M680.3,626.48h24.12v-68L680.3,582.59Zm-38-55.49-61.93-57.64-.16,113.13H604.5V566.37l37.27,37.43,62.65-62.64V513.35Z"/><path d="M760.24,582.88,719,513.35H747l25.27,42.28,25.27-42.28h28.08l-41.29,69.86v43.27H760.24Z"/><path d="M858,536.47H829V513.35h82.41v23.12H882.3v90H858Z"/><path d="M949,605.84V579.25h49.39V558.44H924.74v68h81.75V605.84Zm-24.28-92.49v20.28h81.75V513.35Z"/><path class="cls-5" d="M590.34,675.67l-9.78-15.6h4.7l7.13,11.1,7.12-11.1h4.7l-9.82,15.68V686h-4Z"/><path class="cls-5" d="M604.86,673a13.62,13.62,0,1,1,13.63,13.6A13.63,13.63,0,0,1,604.86,673Zm23.22,0a9.75,9.75,0,0,0-9.63-9.62,9.61,9.61,0,1,0,9.63,9.62Z"/><path class="cls-5" d="M637.44,676.17v-16.1h3.92v16.1c0,3.74,2.24,6.36,6.21,6.36s6.16-2.62,6.16-6.36v-16.1h3.93v16.1c0,5.9-3.85,10.36-10.09,10.36S637.44,682.07,637.44,676.17Z"/><path class="cls-5" d="M665.05,660.07h11.28a8.69,8.69,0,0,1,9.09,8.94,8.46,8.46,0,0,1-5.55,8.28L686,686h-4.7l-5.66-8.08-6.55,0V686h-4Zm4,14.33h7a5.39,5.39,0,1,0,0-10.78h-7Z"/><path class="cls-5" d="M702.59,663.93h-7.47v-3.86h19v3.86H706.6V686h-4Z"/><path class="cls-5" d="M717.73,660.07h18.6v3.47H721.77v7.59h12.71v3.5H721.77v7.94h14.56V686h-18.6Z"/><path class="cls-5" d="M740.06,673.05a13.34,13.34,0,0,1,13.4-13.55,12.58,12.58,0,0,1,10.17,4.66l-2.73,2.77a9.32,9.32,0,0,0-7.44-3.58,9.73,9.73,0,0,0,0,19.45,8.57,8.57,0,0,0,7.4-3.55l2.77,2.74a12.27,12.27,0,0,1-10.17,4.66A13.45,13.45,0,0,1,740.06,673.05Z"/><path class="cls-5" d="M768.17,660.07h4v10.52h13.6V660.07h4v26h-4V674.44h-13.6V686h-4Z"/><path class="cls-5" d="M830.85,675.67l-9.79-15.6h4.7l7.13,11.1,7.12-11.1h4.7l-9.82,15.68V686h-4Z"/><path class="cls-5" d="M845.36,673A13.62,13.62,0,1,1,859,686.61,13.64,13.64,0,0,1,845.36,673Zm23.22,0a9.74,9.74,0,0,0-9.62-9.62,9.61,9.61,0,1,0,9.62,9.62Z"/><path class="cls-5" d="M877.94,676.17v-16.1h3.93v16.1c0,3.74,2.23,6.36,6.2,6.36s6.16-2.62,6.16-6.36v-16.1h3.93v16.1c0,5.9-3.85,10.36-10.09,10.36S877.94,682.07,877.94,676.17Z"/><path class="cls-5" d="M905.55,660.07h11.28a8.69,8.69,0,0,1,9.09,8.94,8.46,8.46,0,0,1-5.55,8.28l6.13,8.7h-4.7l-5.66-8.08-6.55,0V686h-4Zm4,14.33h7a5.39,5.39,0,1,0,0-10.78h-7Z"/><path class="cls-5" d="M956,686l-5.2-9.59L945.68,686l-14.09-26H936l9.66,18.14,3-5.66L942,660.07h4.43l4.46,8.63,4.51-8.63h4.43l-6.7,12.48,3,5.66,9.63-18.14h4.43Z"/><path class="cls-5" d="M985.92,680.83H971.75l-2.81,5.2h-4.43l14.32-26,14.33,26h-4.43Zm-2-3.58-5-9.4-5,9.4Z"/><path class="cls-5" d="M999.71,675.67l-9.79-15.6h4.7l7.13,11.1,7.12-11.1h4.7l-9.82,15.68V686h-4Z"/><polygon class="cls-5" points="808.48 683.08 802.35 674.55 808.48 666.02 814.6 674.55 808.48 683.08"/></svg>